# Blender v2.79 (sub 0) OBJ File: 'Banner.blend'
# www.blender.org
mtllib Banner.mtl
o Banner_Cylinder.010
v 0.736263 2.991814 -0.000331
v 0.736263 3.043504 -0.030174
v 0.736263 2.991814 0.059355
v 0.736263 3.043504 0.089198
v 0.736263 3.095193 0.059355
v 0.736263 3.095194 -0.000331
v 0.816915 3.001354 0.005176
v 0.816915 3.043504 -0.019160
v 0.816915 3.001354 0.053847
v 0.816915 3.043504 0.078183
v 0.816915 3.085654 0.053847
v 0.816915 3.085654 0.005176
v 0.816915 3.016133 0.021491
v 0.816915 3.043504 0.013471
v 0.816915 3.016133 0.037532
v 0.816915 3.043504 0.045553
v 0.816915 3.070875 0.037532
v 0.816915 3.070875 0.021491
v 0.876516 3.027574 0.019825
v 0.876516 3.043504 0.010137
v 0.876516 3.027574 0.039199
v 0.876516 3.043504 0.048886
v 0.876516 3.059434 0.039199
v 0.876516 3.059434 0.019825
v 0.889363 2.991402 0.019825
v 0.889363 3.043504 0.010137
v 0.889363 2.991402 0.039199
v 0.889363 3.043504 0.048886
v 0.889363 3.095606 0.039199
v 0.889363 3.095606 0.019825
v 1.124105 3.027755 0.019825
v 1.180506 3.043504 0.020729
v 1.124105 3.027755 0.039199
v 1.180506 3.043504 0.038294
v 1.124105 3.059252 0.039199
v 1.124105 3.059252 0.019825
v 1.125547 3.043504 0.044641
v 1.126921 3.043504 0.014407
v 0.736263 3.009705 0.009998
v 0.736263 3.043504 -0.009516
v 0.736263 3.009705 0.049026
v 0.736263 3.043504 0.068540
v 0.736263 3.077303 0.049026
v 0.736263 3.077303 0.009998
v 0.220423 3.009705 0.049026
v 0.220423 3.009705 0.009998
v 0.220423 3.077303 0.009998
v 0.220423 3.077303 0.049026
v 0.220423 3.043504 0.068540
v 0.220423 3.043504 -0.009516
v 0.286841 3.009705 0.009998
v 0.286841 3.077303 0.049026
v 0.286841 3.043504 -0.009516
v 0.286841 3.009705 0.049026
v 0.286841 3.077303 0.009998
v 0.286841 3.043504 0.068540
v 0.284328 3.002454 0.053212
v 0.222936 3.002454 0.053212
v 0.284328 3.084554 0.005812
v 0.222936 3.084554 0.005812
v 0.284328 3.043504 0.076912
v 0.222936 3.043504 0.076912
v 0.222936 3.084553 0.053212
v 0.222936 3.043504 -0.017888
v 0.222936 3.002454 0.005812
v 0.284328 3.002454 0.005812
v 0.284328 3.084553 0.053212
v 0.284328 3.043504 -0.017888
v -0.736263 2.991814 -0.000331
v -0.736263 3.043504 -0.030174
v -0.736263 2.991814 0.059355
v -0.736263 3.043504 0.089198
v -0.736263 3.095193 0.059355
v -0.736263 3.095194 -0.000331
v -0.816915 3.001354 0.005176
v -0.816915 3.043504 -0.019160
v -0.816915 3.001354 0.053847
v -0.816915 3.043504 0.078183
v -0.816915 3.085654 0.053847
v -0.816915 3.085654 0.005176
v -0.816915 3.016133 0.021491
v -0.816915 3.043504 0.013471
v -0.816915 3.016133 0.037532
v -0.816915 3.043504 0.045553
v -0.816915 3.070875 0.037532
v -0.816915 3.070875 0.021491
v -0.876516 3.027574 0.019825
v -0.876516 3.043504 0.010137
v -0.876516 3.027574 0.039199
v -0.876516 3.043504 0.048886
v -0.876516 3.059434 0.039199
v -0.876516 3.059434 0.019825
v -0.889363 2.991402 0.019825
v -0.889363 3.043504 0.010137
v -0.889363 2.991402 0.039199
v -0.889363 3.043504 0.048886
v -0.889363 3.095606 0.039199
v -0.889363 3.095606 0.019825
v -1.124105 3.027755 0.019825
v -1.180506 3.043504 0.020729
v -1.124105 3.027755 0.039199
v -1.180506 3.043504 0.038294
v -1.124105 3.059252 0.039199
v -1.124105 3.059252 0.019825
v -1.125547 3.043504 0.044641
v -1.126921 3.043504 0.014407
v -0.736263 3.009705 0.009998
v -0.736263 3.043504 -0.009516
v -0.736263 3.009705 0.049026
v -0.736263 3.043504 0.068540
v -0.736263 3.077303 0.049026
v -0.736263 3.077303 0.009998
v -0.220423 3.009705 0.049026
v -0.220423 3.009705 0.009998
v -0.220423 3.077303 0.009998
v -0.220423 3.077303 0.049026
v -0.220423 3.043504 0.068540
v -0.220423 3.043504 -0.009516
v -0.286841 3.009705 0.009998
v -0.286841 3.077303 0.049026
v -0.286841 3.043504 -0.009516
v -0.286841 3.009705 0.049026
v -0.286841 3.077303 0.009998
v -0.286841 3.043504 0.068540
v -0.284328 3.002454 0.053212
v -0.222936 3.002454 0.053212
v -0.284328 3.084554 0.005812
v -0.222936 3.084554 0.005812
v -0.284328 3.043504 0.076912
v -0.222936 3.043504 0.076912
v -0.222936 3.084553 0.053212
v -0.222936 3.043504 -0.017888
v -0.222936 3.002454 0.005812
v -0.284328 3.002454 0.005812
v -0.284328 3.084553 0.053212
v -0.284328 3.043504 -0.017888
v 0.000000 3.009705 0.009998
v 0.000000 3.043504 -0.009516
v 0.000000 3.009705 0.049026
v 0.000000 3.043504 0.068540
v 0.000000 3.077303 0.049026
v 0.000000 3.077303 0.009998
v -0.282171 3.039168 0.063469
v 0.278729 3.039168 0.063469
v -0.282171 1.268278 0.063469
v 0.278729 1.268278 0.063469
v -0.001721 3.039168 0.063469
v -0.001721 1.268278 0.063469
v 0.278729 0.248743 0.063469
v -0.282171 0.248743 0.063469
v -0.282171 1.268278 0.044159
v -0.282171 3.039168 0.044159
v -0.001721 3.039168 0.044159
v 0.278729 3.039168 0.044159
v 0.278729 1.268278 0.044159
v -0.001721 1.268278 0.044159
v 0.278729 0.248743 0.044159
v -0.282171 0.248743 0.044159
v -0.282171 1.313898 0.063469
v 0.261962 1.313898 0.063469
v -0.001721 1.313898 0.063469
v -0.282171 1.313898 0.044159
v 0.261962 1.313898 0.044159
v -0.001721 1.313898 0.044159
v -0.282171 1.898319 0.063469
v -0.282171 1.898319 0.044159
v 0.293491 2.176471 0.063469
v -0.001721 2.176471 0.063469
v 0.293491 2.176471 0.044159
v -0.001721 2.176471 0.044159
v -0.258415 1.951947 0.063469
v -0.258415 1.951947 0.044159
v 0.278441 2.209352 0.063469
v -0.001721 2.209352 0.063469
v 0.278441 2.209352 0.044159
v -0.001721 2.209352 0.044159
v -0.282171 1.994031 0.063469
v -0.282171 1.994031 0.044159
v 0.290059 2.272183 0.063469
v -0.001721 2.272183 0.063469
v 0.290059 2.272183 0.044159
v -0.001721 2.272183 0.044159
v -0.270361 0.758511 0.063469
v -0.270361 0.758511 0.044159
v -0.282171 0.712390 0.044159
v -0.282171 0.715245 0.063469
v -0.282171 0.772502 0.044159
v -0.282171 0.777988 0.063469
v 0.000000 0.098411 -0.037236
v 0.000000 3.358415 -0.037236
v 0.032247 0.098411 -0.018618
v 0.032247 3.358415 -0.018618
v 0.032247 0.098411 0.018618
v 0.032247 3.358415 0.018618
v -0.000000 0.098411 0.037236
v -0.000000 3.358415 0.037236
v -0.032247 0.098411 0.018618
v -0.032247 3.358415 0.018618
v -0.032247 0.098411 -0.018618
v -0.032247 3.358415 -0.018618
v 0.051690 3.358013 -0.029843
v 0.000000 3.358013 -0.059686
v 0.051690 3.358013 0.029843
v 0.000000 3.358013 0.059686
v -0.051690 3.358013 0.029843
v -0.051690 3.358013 -0.029843
v 0.042150 3.438665 -0.024336
v -0.000000 3.438665 -0.048671
v 0.042150 3.438665 0.024336
v -0.000000 3.438665 0.048671
v -0.042151 3.438665 0.024336
v -0.042151 3.438665 -0.024336
v 0.027371 3.438665 -0.008021
v -0.000000 3.438665 -0.016041
v 0.027371 3.438665 0.008021
v -0.000000 3.438665 0.016041
v -0.027371 3.438665 0.008021
v -0.027371 3.438665 -0.008021
v 0.015930 3.498267 -0.009687
v -0.000000 3.498267 -0.019374
v 0.015930 3.498267 0.009687
v -0.000000 3.498267 0.019374
v -0.015930 3.498267 0.009687
v -0.015930 3.498267 -0.009687
v 0.052102 3.511114 -0.009687
v -0.000000 3.511114 -0.019374
v 0.052102 3.511114 0.009687
v -0.000000 3.511114 0.019374
v -0.052102 3.511114 0.009687
v -0.052102 3.511114 -0.009687
v 0.015748 3.745856 -0.009687
v -0.000000 3.802257 -0.008782
v 0.015748 3.745856 0.009687
v -0.000000 3.802257 0.008782
v -0.015748 3.745856 0.009687
v -0.015748 3.745856 -0.009687
v -0.000000 3.747298 0.015129
v -0.000000 3.748672 -0.015105
v 0.012462 2.735945 -0.033376
v 0.041366 2.735945 -0.016688
v 0.041366 2.735945 0.016688
v 0.012462 2.735945 0.033376
v -0.016442 2.735945 0.016688
v -0.016442 2.735945 -0.016688
v 0.027831 2.682273 -0.016727
v 0.027831 2.682273 0.016727
v -0.001141 2.682273 0.033454
v -0.030113 2.682273 0.016727
v -0.030113 2.682273 -0.016727
v -0.001141 2.682273 -0.033454
v 0.039988 0.392685 -0.018402
v 0.039988 0.392685 0.018402
v 0.008114 0.392685 0.036805
v -0.023760 0.392685 0.018402
v -0.023760 0.392685 -0.018402
v 0.008114 0.392685 -0.036805
v -0.000172 0.488483 -0.036665
v 0.031580 0.488483 -0.018332
v 0.031580 0.488483 0.018332
v -0.000172 0.488483 0.036665
v -0.031925 0.488483 0.018332
v -0.031925 0.488483 -0.018332
v -0.269778 0.003701 0.109648
v -0.269778 0.060541 0.109648
v -0.269778 0.003701 -0.109648
v -0.269778 0.060541 -0.109648
v 0.269778 0.003701 0.109648
v 0.269778 0.060541 0.109648
v 0.269778 0.003701 -0.109648
v 0.269778 0.060541 -0.109648
v -0.092895 0.060541 0.067371
v -0.092895 0.060541 -0.067371
v 0.092895 0.060541 -0.067371
v 0.092895 0.060541 0.067371
v -0.092895 0.102209 0.067371
v -0.092895 0.102209 -0.067371
v 0.092895 0.102209 -0.067371
v 0.092895 0.102209 0.067371
v 0.511552 3.009705 0.009998
v 0.511552 3.053497 0.049026
v 0.511552 3.043504 -0.009516
v 0.511552 3.009705 0.049026
v 0.511552 3.053498 0.009998
v 0.511552 3.043504 0.068540
v 0.531459 3.009705 0.009998
v 0.531459 3.077303 0.049026
v 0.531459 3.043504 -0.009516
v 0.531459 3.009705 0.049026
v 0.531459 3.077303 0.009998
v 0.531459 3.043504 0.068540
vn 0.0000 -1.0000 0.0000
vn 0.0000 1.0000 0.0000
vn 0.0000 -0.5000 0.8660
vn 0.0000 -0.5000 -0.8660
vn 0.0000 0.5000 -0.8660
vn 0.0000 0.5000 0.8660
vn 0.1053 0.9944 0.0000
vn 0.0352 0.6649 -0.7461
vn 0.0352 0.6649 0.7461
vn 0.5000 0.0046 -0.8660
vn 0.9999 0.0146 0.0000
vn 0.5000 0.0046 0.8660
vn -0.4999 -0.0154 0.8659
vn -0.9997 -0.0254 0.0000
vn -0.4999 -0.0154 -0.8659
vn -0.4960 0.1270 -0.8590
vn -0.9691 0.2468 0.0000
vn -0.4960 0.1269 0.8590
vn 0.4961 -0.1245 0.8593
vn 0.9696 -0.2445 0.0000
vn 0.4961 -0.1245 -0.8593
vn 0.5000 0.0015 -0.8660
vn 1.0000 0.0017 0.0000
vn 0.5000 0.0015 0.8660
vn -0.5000 0.0010 0.8660
vn -1.0000 0.0008 0.0000
vn -0.5000 0.0010 -0.8660
vn -0.4999 0.0151 -0.8659
vn -0.9996 0.0288 0.0000
vn -0.4999 0.0151 0.8659
vn 0.5000 -0.0125 0.8660
vn 0.9997 -0.0263 0.0000
vn 0.5000 -0.0125 -0.8660
vn -0.4996 -0.0419 -0.8653
vn -0.9964 -0.0849 0.0000
vn -0.4996 -0.0419 0.8653
vn 0.4995 0.0445 0.8652
vn 0.9962 0.0874 0.0000
vn 0.4995 0.0445 -0.8652
vn -0.3696 0.6182 0.6937
vn -0.3696 0.6182 -0.6937
vn -0.7671 0.6415 0.0000
vn 0.1175 0.4965 -0.8600
vn 1.0000 0.0000 0.0000
vn 0.1175 0.4965 0.8600
vn 0.1175 -0.9931 0.0000
vn 0.1175 0.9931 0.0000
vn 0.1175 -0.4965 0.8600
vn 0.1175 -0.4965 -0.8600
vn -0.0025 0.3785 -0.9256
vn -0.9423 0.3347 0.0000
vn -0.0025 0.3785 0.9256
vn 0.1885 -0.9821 0.0000
vn 0.1885 0.9821 0.0000
vn -0.0025 -0.3785 0.9256
vn -0.0025 -0.3785 -0.9256
vn 0.0256 0.2181 0.9756
vn -0.3598 -0.2556 0.8974
vn -0.3598 -0.2556 -0.8974
vn -0.3598 0.2556 -0.8974
vn -0.3598 0.2556 0.8974
vn -0.9423 -0.3347 0.0000
vn 0.2689 -0.9632 0.0000
vn 0.1530 -0.9882 0.0000
vn 0.1530 0.9882 0.0000
vn 0.0256 -0.2181 0.9756
vn 0.0256 -0.2182 -0.9756
vn 0.0256 0.2182 -0.9756
vn 0.2689 0.9632 0.0000
vn 0.1082 -0.3335 0.9365
vn 0.1082 0.3335 0.9365
vn 0.1102 0.3409 -0.9336
vn 0.1102 -0.3409 -0.9336
vn -1.0000 0.0000 0.0000
vn -0.1175 0.4965 -0.8600
vn -0.1175 0.4965 0.8600
vn -0.1175 -0.9931 0.0000
vn -0.1175 0.9931 0.0000
vn -0.1175 -0.4965 0.8600
vn -0.1175 -0.4965 -0.8600
vn 0.0025 0.3785 -0.9256
vn 0.9423 0.3347 0.0000
vn 0.0025 0.3785 0.9256
vn -0.1885 -0.9821 0.0000
vn -0.1885 0.9821 0.0000
vn 0.0025 -0.3785 0.9256
vn 0.0025 -0.3785 -0.9256
vn -0.0256 0.2181 0.9756
vn 0.3598 -0.2556 0.8974
vn 0.3598 -0.2556 -0.8974
vn 0.3598 0.2556 -0.8974
vn 0.3598 0.2556 0.8974
vn 0.9423 -0.3347 0.0000
vn -0.2689 -0.9632 0.0000
vn -0.1530 -0.9882 0.0000
vn -0.1530 0.9882 0.0000
vn -0.0256 -0.2181 0.9756
vn -0.0256 -0.2182 -0.9756
vn -0.0256 0.2182 -0.9756
vn -0.2689 0.9632 0.0000
vn -0.1082 -0.3335 0.9365
vn -0.1082 0.3335 0.9365
vn -0.1102 0.3409 -0.9336
vn -0.1102 -0.3409 -0.9336
vn 0.0207 -0.9998 0.0000
vn -0.4965 0.1175 -0.8600
vn -0.0103 -0.9998 0.0179
vn -0.0103 -0.9998 -0.0179
vn 0.0103 -0.9998 0.0179
vn 0.0103 -0.9998 -0.0179
vn -0.0207 -0.9998 0.0000
vn -0.4965 0.1175 0.8600
vn 0.9931 0.1175 0.0000
vn -0.9931 0.1175 0.0000
vn 0.4965 0.1175 0.8600
vn 0.4965 0.1175 -0.8600
vn -0.3785 -0.0025 -0.9256
vn -0.3347 -0.9423 0.0000
vn -0.3785 -0.0025 0.9256
vn 0.9821 0.1885 0.0000
vn -0.9821 0.1885 0.0000
vn 0.3785 -0.0025 0.9256
vn 0.3785 -0.0025 -0.9256
vn -0.2181 0.0256 0.9756
vn 0.2555 -0.3597 0.8974
vn 0.2555 -0.3598 -0.8974
vn -0.2555 -0.3598 -0.8974
vn -0.2555 -0.3598 0.8974
vn 0.3347 -0.9423 0.0000
vn 0.9632 0.2689 0.0000
vn 0.9882 0.1530 0.0000
vn -0.9882 0.1530 0.0000
vn 0.2181 0.0256 0.9756
vn 0.2182 0.0256 -0.9756
vn -0.2182 0.0256 -0.9756
vn -0.9632 0.2689 -0.0000
vn 0.3335 0.1082 0.9365
vn -0.3335 0.1082 0.9365
vn -0.3409 0.1102 -0.9336
vn 0.3409 0.1102 -0.9336
vn 0.0000 0.0000 1.0000
vn 0.0000 0.0000 -1.0000
vn 0.9448 -0.1638 0.2836
vn -0.9448 0.1638 0.2836
vn 0.9448 0.1638 0.2836
vn -0.9448 -0.1638 0.2836
vn 0.9448 0.3275 0.0000
vn 0.9448 0.1638 -0.2836
vn -0.9448 0.3275 0.0000
vn -0.9448 0.1638 -0.2836
vn 0.9448 -0.1638 -0.2836
vn -0.9448 -0.3275 0.0000
vn 0.9448 -0.3275 0.0000
vn -0.9448 -0.1638 -0.2836
vn 0.9642 -0.2652 0.0000
vn -0.9666 0.2554 -0.0189
vn 0.9999 0.0148 0.0000
vn -0.9642 -0.2652 0.0000
vn 0.9386 0.3450 0.0000
vn -0.9143 0.4050 0.0000
vn 0.9993 -0.0365 0.0000
vn -0.8708 -0.4916 0.0000
vn 0.9093 0.4162 0.0000
vn 0.9833 -0.1818 0.0000
vn -0.8143 -0.5747 0.0816
usemtl Wood
s off
f 46//1 45//1 139//1 137//1
f 48//2 47//2 142//2 141//2
f 45//3 49//3 140//3 139//3
f 50//4 46//4 137//4 138//4
f 47//5 50//5 138//5 142//5
f 49//6 48//6 141//6 140//6
f 279//1 282//1 54//1 51//1
f 280//7 283//7 55//7 52//7
f 282//3 284//3 56//3 54//3
f 281//4 279//4 51//4 53//4
f 283//8 281//8 53//8 55//8
f 284//9 280//9 52//9 56//9
f 114//1 137//1 139//1 113//1
f 116//2 141//2 142//2 115//2
f 113//3 139//3 140//3 117//3
f 118//4 138//4 137//4 114//4
f 115//5 142//5 138//5 118//5
f 117//6 140//6 141//6 116//6
f 107//1 119//1 122//1 109//1
f 111//2 120//2 123//2 112//2
f 109//3 122//3 124//3 110//3
f 108//4 121//4 119//4 107//4
f 112//5 123//5 121//5 108//5
f 110//6 124//6 120//6 111//6
f 239//10 190//10 192//10 240//10
f 240//11 192//11 194//11 241//11
f 241//12 194//12 196//12 242//12
f 242//13 196//13 198//13 243//13
f 243//14 198//14 200//14 244//14
f 244//15 200//15 190//15 239//15
f 189//1 191//1 193//1 195//1 197//1 199//1
f 249//16 244//16 239//16 250//16
f 248//17 243//17 244//17 249//17
f 247//18 242//18 243//18 248//18
f 246//19 241//19 242//19 247//19
f 245//20 240//20 241//20 246//20
f 250//21 239//21 240//21 245//21
f 257//22 250//22 245//22 258//22
f 258//23 245//23 246//23 259//23
f 259//24 246//24 247//24 260//24
f 260//25 247//25 248//25 261//25
f 261//26 248//26 249//26 262//26
f 262//27 249//27 250//27 257//27
f 199//28 255//28 256//28 189//28
f 197//29 254//29 255//29 199//29
f 195//30 253//30 254//30 197//30
f 193//31 252//31 253//31 195//31
f 191//32 251//32 252//32 193//32
f 189//33 256//33 251//33 191//33
f 255//34 262//34 257//34 256//34
f 254//35 261//35 262//35 255//35
f 253//36 260//36 261//36 254//36
f 252//37 259//37 260//37 253//37
f 251//38 258//38 259//38 252//38
f 256//39 257//39 258//39 251//39
f 290//40 286//40 280//40 284//40
f 289//41 287//41 281//41 283//41
f 287//4 285//4 279//4 281//4
f 288//3 290//3 284//3 282//3
f 286//42 289//42 283//42 280//42
f 285//1 288//1 282//1 279//1
f 39//1 41//1 288//1 285//1
f 43//2 44//2 289//2 286//2
f 41//3 42//3 290//3 288//3
f 40//4 39//4 285//4 287//4
f 44//5 40//5 287//5 289//5
f 42//6 43//6 286//6 290//6
usemtl Metal
f 2//43 6//43 12//43 8//43
f 12//44 11//44 17//44 18//44
f 5//45 4//45 10//45 11//45
f 3//46 1//46 7//46 9//46
f 6//47 5//47 11//47 12//47
f 4//48 3//48 9//48 10//48
f 1//49 2//49 8//49 7//49
f 14//50 18//50 24//50 20//50
f 10//44 9//44 15//44 16//44
f 7//44 8//44 14//44 13//44
f 8//44 12//44 18//44 14//44
f 11//44 10//44 16//44 17//44
f 9//44 7//44 13//44 15//44
f 24//51 23//51 29//51 30//51
f 17//52 16//52 22//52 23//52
f 15//53 13//53 19//53 21//53
f 18//54 17//54 23//54 24//54
f 16//55 15//55 21//55 22//55
f 13//56 14//56 20//56 19//56
f 29//57 28//57 37//57 35//57
f 22//58 21//58 27//58 28//58
f 19//59 20//59 26//59 25//59
f 20//60 24//60 30//60 26//60
f 23//61 22//61 28//61 29//61
f 21//62 19//62 25//62 27//62
f 31//63 32//63 34//63 33//63
f 27//64 25//64 31//64 33//64
f 30//65 29//65 35//65 36//65
f 28//66 27//66 33//66 37//66
f 25//67 26//67 38//67 31//67
f 26//68 30//68 36//68 38//68
f 34//69 32//69 36//69 35//69
f 37//70 33//70 34//70
f 35//71 37//71 34//71
f 38//72 36//72 32//72
f 31//73 38//73 32//73
f 5//74 6//74 44//74 43//74
f 3//74 4//74 42//74 41//74
f 2//74 1//74 39//74 40//74
f 6//74 2//74 40//74 44//74
f 4//74 5//74 43//74 42//74
f 1//74 3//74 41//74 39//74
f 70//75 76//75 80//75 74//75
f 80//74 86//74 85//74 79//74
f 73//76 79//76 78//76 72//76
f 71//77 77//77 75//77 69//77
f 74//78 80//78 79//78 73//78
f 72//79 78//79 77//79 71//79
f 69//80 75//80 76//80 70//80
f 82//81 88//81 92//81 86//81
f 78//74 84//74 83//74 77//74
f 75//74 81//74 82//74 76//74
f 76//74 82//74 86//74 80//74
f 79//74 85//74 84//74 78//74
f 77//74 83//74 81//74 75//74
f 92//82 98//82 97//82 91//82
f 85//83 91//83 90//83 84//83
f 83//84 89//84 87//84 81//84
f 86//85 92//85 91//85 85//85
f 84//86 90//86 89//86 83//86
f 81//87 87//87 88//87 82//87
f 97//88 103//88 105//88 96//88
f 90//89 96//89 95//89 89//89
f 87//90 93//90 94//90 88//90
f 88//91 94//91 98//91 92//91
f 91//92 97//92 96//92 90//92
f 89//93 95//93 93//93 87//93
f 99//94 101//94 102//94 100//94
f 95//95 101//95 99//95 93//95
f 98//96 104//96 103//96 97//96
f 96//97 105//97 101//97 95//97
f 93//98 99//98 106//98 94//98
f 94//99 106//99 104//99 98//99
f 102//100 103//100 104//100 100//100
f 105//101 102//101 101//101
f 103//102 102//102 105//102
f 106//103 100//103 104//103
f 99//104 100//104 106//104
f 73//44 111//44 112//44 74//44
f 71//44 109//44 110//44 72//44
f 70//44 108//44 107//44 69//44
f 74//44 112//44 108//44 70//44
f 72//44 110//44 111//44 73//44
f 69//44 107//44 109//44 71//44
f 200//105 198//105 205//105 206//105
f 202//106 206//106 212//106 208//106
f 192//107 190//107 202//107 201//107
f 196//108 194//108 203//108 204//108
f 190//109 200//109 206//109 202//109
f 198//110 196//110 204//110 205//110
f 194//111 192//111 201//111 203//111
f 212//2 211//2 217//2 218//2
f 205//112 204//112 210//112 211//112
f 203//113 201//113 207//113 209//113
f 206//114 205//114 211//114 212//114
f 204//115 203//115 209//115 210//115
f 201//116 202//116 208//116 207//116
f 214//117 218//117 224//117 220//117
f 210//2 209//2 215//2 216//2
f 207//2 208//2 214//2 213//2
f 208//2 212//2 218//2 214//2
f 211//2 210//2 216//2 217//2
f 209//2 207//2 213//2 215//2
f 224//118 223//118 229//118 230//118
f 217//119 216//119 222//119 223//119
f 215//120 213//120 219//120 221//120
f 218//121 217//121 223//121 224//121
f 216//122 215//122 221//122 222//122
f 213//123 214//123 220//123 219//123
f 229//124 228//124 237//124 235//124
f 222//125 221//125 227//125 228//125
f 219//126 220//126 226//126 225//126
f 220//127 224//127 230//127 226//127
f 223//128 222//128 228//128 229//128
f 221//129 219//129 225//129 227//129
f 231//130 232//130 234//130 233//130
f 227//131 225//131 231//131 233//131
f 230//132 229//132 235//132 236//132
f 228//133 227//133 233//133 237//133
f 225//134 226//134 238//134 231//134
f 226//135 230//135 236//135 238//135
f 234//136 232//136 236//136 235//136
f 237//137 233//137 234//137
f 235//138 237//138 234//138
f 238//139 236//139 232//139
f 231//140 238//140 232//140
f 271//141 274//141 278//141 275//141
f 277//2 276//2 275//2 278//2
f 273//142 272//142 276//142 277//142
f 274//44 273//44 277//44 278//44
f 272//74 271//74 275//74 276//74
usemtl Main
f 54//143 56//143 61//143 57//143
f 48//144 49//144 62//144 63//144
f 56//145 52//145 67//145 61//145
f 49//146 45//146 58//146 62//146
f 52//147 55//147 59//147 67//147
f 55//148 53//148 68//148 59//148
f 61//6 67//6 63//6 62//6
f 59//5 68//5 64//5 60//5
f 68//4 66//4 65//4 64//4
f 57//3 61//3 62//3 58//3
f 67//2 59//2 60//2 63//2
f 66//1 57//1 58//1 65//1
f 47//149 48//149 63//149 60//149
f 50//150 47//150 60//150 64//150
f 53//151 51//151 66//151 68//151
f 45//152 46//152 65//152 58//152
f 51//153 54//153 57//153 66//153
f 46//154 50//154 64//154 65//154
f 122//146 125//146 129//146 124//146
f 116//145 131//145 130//145 117//145
f 124//144 129//144 135//144 120//144
f 117//143 130//143 126//143 113//143
f 120//149 135//149 127//149 123//149
f 123//150 127//150 136//150 121//150
f 129//6 130//6 131//6 135//6
f 127//5 128//5 132//5 136//5
f 136//4 132//4 133//4 134//4
f 125//3 126//3 130//3 129//3
f 135//2 131//2 128//2 127//2
f 134//1 133//1 126//1 125//1
f 115//147 128//147 131//147 116//147
f 118//148 132//148 128//148 115//148
f 121//154 136//154 134//154 119//154
f 113//153 126//153 133//153 114//153
f 119//152 134//152 125//152 122//152
f 114//151 133//151 132//151 118//151
f 161//141 148//141 146//141 160//141
f 159//141 145//141 148//141 161//141
f 148//141 149//141 146//141
f 145//141 188//141 183//141 186//141 150//141 148//141
f 164//142 163//142 155//142 156//142
f 162//142 164//142 156//142 151//142
f 156//142 155//142 157//142
f 151//142 156//142 158//142 185//142 184//142 187//142
f 144//2 154//2 153//2 147//2
f 150//155 158//155 156//155 148//155
f 183//156 184//156 185//156 186//156
f 147//2 153//2 152//2 143//2
f 179//157 181//157 154//157 144//157
f 159//74 162//74 151//74 145//74
f 148//158 156//158 157//158 149//158
f 149//44 157//44 155//44 146//44
f 165//74 166//74 162//74 159//74
f 146//159 155//159 163//159 160//159
f 166//142 170//142 164//142 162//142
f 170//142 169//142 163//142 164//142
f 165//141 159//141 161//141 168//141
f 168//141 161//141 160//141 167//141
f 174//141 168//141 167//141 173//141
f 171//141 165//141 168//141 174//141
f 176//142 175//142 169//142 170//142
f 172//142 176//142 170//142 166//142
f 171//160 172//160 166//160 165//160
f 160//161 163//161 169//161 167//161
f 177//162 178//162 172//162 171//162
f 178//142 182//142 176//142 172//142
f 182//142 181//142 175//142 176//142
f 177//141 171//141 174//141 180//141
f 180//141 174//141 173//141 179//141
f 167//163 169//163 175//163 173//163
f 147//141 180//141 179//141 144//141
f 143//141 177//141 180//141 147//141
f 153//142 154//142 181//142 182//142
f 152//142 153//142 182//142 178//142
f 143//74 152//74 178//74 177//74
f 173//164 175//164 181//164 179//164
f 145//74 151//74 187//74 188//74
f 186//74 185//74 158//74 150//74
f 188//165 187//165 184//165 183//165
usemtl DarkMetal
f 263//74 264//74 266//74 265//74
f 265//142 266//142 270//142 269//142
f 269//44 270//44 268//44 267//44
f 267//141 268//141 264//141 263//141
f 265//1 269//1 267//1 263//1
f 268//2 270//2 273//2 274//2
f 266//2 264//2 271//2 272//2
f 264//2 268//2 274//2 271//2
f 270//2 266//2 272//2 273//2
