# Blender v2.79 (sub 0) OBJ File: 'Banner_wall.blend'
# www.blender.org
mtllib Banner_wall.mtl
o Banner_wall_Cylinder.010
v 0.402942 -0.050210 -0.000331
v 0.402942 0.001480 -0.030174
v 0.402942 -0.050210 0.059355
v 0.402942 0.001480 0.089198
v 0.402942 0.053169 0.059355
v 0.402942 0.053169 -0.000331
v 0.483594 -0.040671 0.005176
v 0.483594 0.001480 -0.019160
v 0.483594 -0.040671 0.053847
v 0.483594 0.001480 0.078183
v 0.483594 0.043630 0.053847
v 0.483594 0.043630 0.005176
v 0.483594 -0.025891 0.021491
v 0.483594 0.001480 0.013471
v 0.483594 -0.025891 0.037532
v 0.483594 0.001480 0.045553
v 0.483594 0.028851 0.037532
v 0.483594 0.028851 0.021491
v 0.543195 -0.014450 0.019825
v 0.543195 0.001480 0.010137
v 0.543195 -0.014450 0.039199
v 0.543195 0.001480 0.048886
v 0.543195 0.017410 0.039199
v 0.543195 0.017410 0.019825
v 0.556042 -0.050622 0.019825
v 0.556042 0.001480 0.010137
v 0.556042 -0.050622 0.039199
v 0.556042 0.001480 0.048886
v 0.556042 0.053581 0.039199
v 0.556042 0.053581 0.019825
v 0.790784 -0.014269 0.019825
v 0.847185 0.001480 0.020729
v 0.790784 -0.014269 0.039199
v 0.847185 0.001480 0.038294
v 0.790784 0.017228 0.039199
v 0.790784 0.017228 0.019825
v 0.792226 0.001480 0.044641
v 0.793600 0.001480 0.014407
v 0.402942 -0.032319 0.009998
v 0.402942 0.001480 -0.009516
v 0.402942 -0.032319 0.049026
v 0.402942 0.001480 0.068540
v 0.402942 0.035279 0.049026
v 0.402942 0.035279 0.009998
v 0.220423 -0.032319 0.049026
v 0.220423 -0.032319 0.009998
v 0.220423 0.035279 0.009998
v 0.220423 0.035279 0.049026
v 0.220423 0.001480 0.068540
v 0.220423 0.001480 -0.009516
v 0.286841 -0.032319 0.009998
v 0.286841 0.035279 0.049026
v 0.286841 0.001480 -0.009516
v 0.286841 -0.032319 0.049026
v 0.286841 0.035279 0.009998
v 0.286841 0.001480 0.068540
v 0.284328 -0.039570 0.053212
v 0.222936 -0.039570 0.053212
v 0.284328 0.042530 0.005812
v 0.222936 0.042530 0.005812
v 0.284328 0.001480 0.076912
v 0.222936 0.001480 0.076912
v 0.222936 0.042529 0.053212
v 0.222936 0.001480 -0.017888
v 0.222936 -0.039570 0.005812
v 0.284328 -0.039570 0.005812
v 0.284328 0.042529 0.053212
v 0.284328 0.001480 -0.017888
v -0.348832 -0.050210 -0.000331
v -0.348832 0.001480 -0.030174
v -0.348832 -0.050210 0.059355
v -0.348832 0.001480 0.089198
v -0.348832 0.053169 0.059355
v -0.348832 0.053169 -0.000331
v -0.429484 -0.040671 0.005176
v -0.429484 0.001480 -0.019160
v -0.429484 -0.040671 0.053847
v -0.429484 0.001480 0.078183
v -0.429484 0.043630 0.053847
v -0.429484 0.043630 0.005176
v -0.429484 -0.025891 0.021491
v -0.429484 0.001480 0.013471
v -0.429484 -0.025891 0.037532
v -0.429484 0.001480 0.045553
v -0.429484 0.028851 0.037532
v -0.429484 0.028851 0.021491
v -0.489085 -0.014450 0.019825
v -0.489085 0.001480 0.010137
v -0.489085 -0.014450 0.039199
v -0.489085 0.001480 0.048886
v -0.489085 0.017410 0.039199
v -0.489085 0.017410 0.019825
v -0.501932 -0.050622 0.019825
v -0.501932 0.001480 0.010137
v -0.501932 -0.050622 0.039199
v -0.501932 0.001480 0.048886
v -0.501932 0.053581 0.039199
v -0.501932 0.053581 0.019825
v -0.736674 -0.014269 0.019825
v -0.793076 0.001480 0.020729
v -0.736674 -0.014269 0.039199
v -0.793076 0.001480 0.038294
v -0.736674 0.017228 0.039199
v -0.736674 0.017228 0.019825
v -0.738116 0.001480 0.044641
v -0.739491 0.001480 0.014407
v -0.348832 -0.032319 0.009998
v -0.348832 0.001480 -0.009516
v -0.348832 -0.032319 0.049026
v -0.348832 0.001480 0.068540
v -0.348832 0.035279 0.049026
v -0.348832 0.035279 0.009998
v -0.220423 -0.032319 0.049026
v -0.220423 -0.032319 0.009998
v -0.220423 0.035279 0.009998
v -0.220423 0.035279 0.049026
v -0.220423 0.001480 0.068540
v -0.220423 0.001480 -0.009516
v -0.286841 -0.032319 0.009998
v -0.286841 0.035279 0.049026
v -0.286841 0.001480 -0.009516
v -0.286841 -0.032319 0.049026
v -0.286841 0.035279 0.009998
v -0.286841 0.001480 0.068540
v -0.284328 -0.039570 0.053212
v -0.222936 -0.039570 0.053212
v -0.284328 0.042530 0.005812
v -0.222936 0.042530 0.005812
v -0.284328 0.001480 0.076912
v -0.222936 0.001480 0.076912
v -0.222936 0.042529 0.053212
v -0.222936 0.001480 -0.017888
v -0.222936 -0.039570 0.005812
v -0.284328 -0.039570 0.005812
v -0.284328 0.042529 0.053212
v -0.284328 0.001480 -0.017888
v 0.000000 -0.032319 0.009998
v 0.000000 0.001480 -0.009516
v 0.000000 -0.032319 0.049026
v 0.000000 0.001480 0.068540
v 0.000000 0.035279 0.049026
v 0.000000 0.035279 0.009998
v -0.282171 -0.002856 0.063469
v 0.278729 -0.002856 0.063469
v -0.282171 -1.773746 0.063469
v 0.278729 -1.773746 0.063469
v -0.001721 -0.002856 0.063469
v -0.001721 -1.773746 0.063469
v 0.278729 -2.793281 0.063469
v -0.282171 -2.793281 0.063469
v -0.282171 -1.773746 0.044159
v -0.282171 -0.002856 0.044159
v -0.001721 -0.002856 0.044159
v 0.278729 -0.002856 0.044159
v 0.278729 -1.773746 0.044159
v -0.001721 -1.773746 0.044159
v 0.278729 -2.793281 0.044159
v -0.282171 -2.793281 0.044159
v -0.282171 -1.728126 0.063469
v 0.261962 -1.728126 0.063469
v -0.001721 -1.728126 0.063469
v -0.282171 -1.728126 0.044159
v 0.261962 -1.728126 0.044159
v -0.001721 -1.728126 0.044159
v -0.282171 -1.143705 0.063469
v -0.282171 -1.143705 0.044159
v 0.293491 -0.865553 0.063469
v -0.001721 -0.865553 0.063469
v 0.293491 -0.865553 0.044159
v -0.001721 -0.865553 0.044159
v -0.258415 -1.090077 0.063469
v -0.258415 -1.090077 0.044159
v 0.278441 -0.832672 0.063469
v -0.001721 -0.832672 0.063469
v 0.278441 -0.832672 0.044159
v -0.001721 -0.832672 0.044159
v -0.282171 -1.047993 0.063469
v -0.282171 -1.047993 0.044159
v 0.290059 -0.769841 0.063469
v -0.001721 -0.769841 0.063469
v 0.290059 -0.769841 0.044159
v -0.001721 -0.769841 0.044159
v -0.270361 -2.283513 0.063469
v -0.270361 -2.283513 0.044159
v -0.282171 -2.329634 0.044159
v -0.282171 -2.326779 0.063469
v -0.282171 -2.269522 0.044159
v -0.282171 -2.264036 0.063469
v 0.341317 -0.032319 0.009998
v 0.341317 0.011473 0.049026
v 0.341317 0.001480 -0.009516
v 0.341317 -0.032319 0.049026
v 0.341317 0.011473 0.009998
v 0.341317 0.001480 0.068540
v 0.361224 -0.032319 0.009998
v 0.361224 0.035279 0.049026
v 0.361224 0.001480 -0.009516
v 0.361224 -0.032319 0.049026
v 0.361224 0.035279 0.009998
v 0.361224 0.001480 0.068540
v 0.327768 0.004811 -0.503859
v 0.300390 0.016775 -0.503859
v 0.300390 -0.017198 -0.503859
v 0.300390 -0.000212 -0.503859
v -0.333414 -0.015507 -0.503859
v -0.333414 0.001480 -0.503859
v -0.333414 0.018467 -0.503859
v -0.302259 -0.015507 -0.503859
v -0.302259 0.001480 -0.503859
v -0.302259 0.018467 -0.503859
v 0.327768 -0.017198 -0.503859
v 0.327768 -0.000212 -0.503859
v -0.307056 0.001480 -0.085147
v -0.307056 0.013235 -0.085147
v -0.328617 -0.010276 -0.085147
v -0.307056 -0.010276 -0.085147
v -0.328617 0.001480 -0.085147
v -0.328617 0.013235 -0.085147
v 0.304606 -0.012863 -0.085147
v 0.304606 -0.001108 -0.085147
v 0.304606 0.010648 -0.085147
v 0.323553 -0.012863 -0.085147
v 0.323553 -0.001108 -0.085147
v 0.323553 0.002368 -0.085147
vn 0.0000 -1.0000 0.0000
vn 0.0000 1.0000 0.0000
vn 0.0000 -0.5000 0.8660
vn 0.0000 -0.5000 -0.8660
vn 0.0000 0.5000 -0.8660
vn 0.0000 0.5000 0.8660
vn 0.4004 0.9163 0.0000
vn -0.9999 0.0000 0.0101
vn 0.0000 -0.9999 0.0125
vn 0.1439 0.6584 0.7388
vn 0.9999 0.0000 0.0115
vn -0.3696 0.6182 0.6937
vn -0.3696 0.6182 -0.6937
vn -0.7671 0.6415 0.0000
vn 0.0000 0.0000 -1.0000
vn 0.0000 -0.9999 0.0104
vn -0.9999 0.0000 0.0115
vn 0.0000 0.9999 0.0125
vn 0.9999 0.0000 0.0101
vn 0.4004 0.9163 0.0094
vn 0.9648 -0.1036 -0.2418
vn -0.9648 0.1036 -0.2418
vn 0.0000 0.9742 -0.2257
vn -0.9648 -0.1036 -0.2418
vn 0.9648 0.1036 -0.2418
vn 0.0000 -0.9742 -0.2257
vn 0.9732 -0.0906 -0.2114
vn 0.3952 0.9045 -0.1604
vn 0.9264 0.3100 -0.2139
vn 0.0000 -0.9797 -0.2003
vn -0.9732 -0.0906 -0.2114
vn -0.9717 0.0929 -0.2170
vn 0.1175 0.4965 -0.8600
vn 1.0000 -0.0000 0.0000
vn 0.1175 0.4965 0.8600
vn 0.1175 -0.9931 0.0000
vn 0.1175 0.9931 0.0000
vn 0.1175 -0.4965 0.8600
vn 0.1175 -0.4965 -0.8600
vn -0.0025 0.3785 -0.9256
vn -0.9423 0.3347 0.0000
vn -0.0025 0.3785 0.9256
vn 0.1885 -0.9821 0.0000
vn 0.1885 0.9821 0.0000
vn -0.0025 -0.3785 0.9256
vn -0.0025 -0.3785 -0.9256
vn 0.0256 0.2181 0.9756
vn -0.3598 -0.2556 0.8974
vn -0.3598 -0.2556 -0.8974
vn -0.3598 0.2556 -0.8974
vn -0.3598 0.2556 0.8974
vn -0.9423 -0.3347 0.0000
vn 0.2689 -0.9632 0.0000
vn 0.1530 -0.9882 0.0000
vn 0.1530 0.9882 0.0000
vn 0.0256 -0.2181 0.9756
vn 0.0256 -0.2182 -0.9756
vn 0.0256 0.2182 -0.9756
vn 0.2689 0.9632 0.0000
vn 0.1082 -0.3335 0.9365
vn 0.1082 0.3335 0.9365
vn 0.1102 0.3409 -0.9336
vn 0.1102 -0.3409 -0.9336
vn -1.0000 0.0000 0.0000
vn -0.1175 0.4965 -0.8600
vn -0.1175 0.4965 0.8600
vn -0.1175 -0.9931 0.0000
vn -0.1175 0.9931 0.0000
vn -0.1175 -0.4965 0.8600
vn -0.1175 -0.4965 -0.8600
vn 0.0025 0.3785 -0.9256
vn 0.9423 0.3347 0.0000
vn 0.0025 0.3785 0.9256
vn -0.1885 -0.9821 0.0000
vn -0.1885 0.9821 0.0000
vn 0.0025 -0.3785 0.9256
vn 0.0025 -0.3785 -0.9256
vn -0.0256 0.2181 0.9756
vn 0.3598 -0.2556 0.8974
vn 0.3598 -0.2556 -0.8974
vn 0.3598 0.2556 -0.8974
vn 0.3598 0.2556 0.8974
vn 0.9423 -0.3347 0.0000
vn -0.2689 -0.9632 0.0000
vn -0.1530 -0.9882 0.0000
vn -0.1530 0.9882 0.0000
vn -0.0256 -0.2181 0.9756
vn -0.0256 -0.2182 -0.9756
vn -0.0256 0.2182 -0.9756
vn -0.2689 0.9632 0.0000
vn -0.1082 -0.3335 0.9365
vn -0.1082 0.3335 0.9365
vn -0.1102 0.3409 -0.9336
vn -0.1102 -0.3409 -0.9336
vn 0.9448 -0.1638 0.2836
vn -0.9448 0.1638 0.2836
vn 0.9448 0.1638 0.2836
vn -0.9448 -0.1638 0.2836
vn 0.9448 0.3275 0.0000
vn 0.9448 0.1638 -0.2836
vn -0.9448 0.3275 0.0000
vn -0.9448 0.1638 -0.2836
vn 0.9448 -0.1638 -0.2836
vn -0.9449 -0.3275 0.0000
vn 0.9449 -0.3275 0.0000
vn -0.9448 -0.1638 -0.2836
vn 0.0000 0.0000 1.0000
vn 0.9642 -0.2652 0.0000
vn -0.9666 0.2554 -0.0189
vn 0.9999 0.0148 0.0000
vn -0.9642 -0.2652 0.0000
vn 0.9386 0.3450 0.0000
vn -0.9143 0.4050 0.0000
vn 0.9993 -0.0365 0.0000
vn -0.8708 -0.4916 0.0000
vn 0.9093 0.4162 0.0000
vn 0.9833 -0.1818 0.0000
vn -0.8143 -0.5747 0.0816
usemtl Wood
s off
f 46//1 45//1 139//1 137//1
f 48//2 47//2 142//2 141//2
f 45//3 49//3 140//3 139//3
f 50//4 46//4 137//4 138//4
f 47//5 50//5 138//5 142//5
f 49//6 48//6 141//6 140//6
f 189//1 192//1 54//1 51//1
f 190//7 193//7 55//7 52//7
f 192//3 194//3 56//3 54//3
f 220//8 221//8 202//8 204//8
f 216//9 215//9 205//9 208//9
f 194//10 190//10 52//10 56//10
f 114//1 137//1 139//1 113//1
f 116//2 141//2 142//2 115//2
f 113//3 139//3 140//3 117//3
f 118//4 138//4 137//4 114//4
f 115//5 142//5 138//5 118//5
f 117//6 140//6 141//6 116//6
f 107//1 119//1 122//1 109//1
f 111//2 120//2 123//2 112//2
f 109//3 122//3 124//3 110//3
f 214//11 213//11 209//11 210//11
f 219//8 220//8 204//8 203//8
f 110//6 124//6 120//6 111//6
f 200//12 196//12 190//12 194//12
f 199//13 197//13 191//13 193//13
f 197//4 195//4 189//4 191//4
f 198//3 200//3 194//3 192//3
f 196//14 199//14 193//14 190//14
f 195//1 198//1 192//1 189//1
f 39//1 41//1 198//1 195//1
f 43//2 44//2 199//2 196//2
f 41//3 42//3 200//3 198//3
f 40//4 39//4 195//4 197//4
f 44//5 40//5 197//5 199//5
f 42//6 43//6 196//6 200//6
f 212//15 211//15 203//15 204//15
f 201//15 212//15 204//15 202//15
f 206//15 209//15 208//15 205//15
f 207//15 210//15 209//15 206//15
f 222//16 219//16 203//16 211//16
f 215//17 217//17 206//17 205//17
f 218//18 214//18 210//18 207//18
f 224//19 223//19 212//19 201//19
f 221//20 224//20 201//20 202//20
f 223//19 222//19 211//19 212//19
f 217//17 218//17 207//17 206//17
f 213//11 216//11 208//11 209//11
f 121//21 119//21 216//21 213//21
f 108//22 112//22 218//22 217//22
f 112//23 123//23 214//23 218//23
f 107//24 108//24 217//24 215//24
f 123//25 121//25 213//25 214//25
f 119//26 107//26 215//26 216//26
f 191//27 189//27 222//27 223//27
f 55//28 193//28 224//28 221//28
f 193//29 191//29 223//29 224//29
f 189//30 51//30 219//30 222//30
f 51//31 53//31 220//31 219//31
f 53//32 55//32 221//32 220//32
usemtl Metal
f 2//33 6//33 12//33 8//33
f 12//34 11//34 17//34 18//34
f 5//35 4//35 10//35 11//35
f 3//36 1//36 7//36 9//36
f 6//37 5//37 11//37 12//37
f 4//38 3//38 9//38 10//38
f 1//39 2//39 8//39 7//39
f 14//40 18//40 24//40 20//40
f 10//34 9//34 15//34 16//34
f 7//34 8//34 14//34 13//34
f 8//34 12//34 18//34 14//34
f 11//34 10//34 16//34 17//34
f 9//34 7//34 13//34 15//34
f 24//41 23//41 29//41 30//41
f 17//42 16//42 22//42 23//42
f 15//43 13//43 19//43 21//43
f 18//44 17//44 23//44 24//44
f 16//45 15//45 21//45 22//45
f 13//46 14//46 20//46 19//46
f 29//47 28//47 37//47 35//47
f 22//48 21//48 27//48 28//48
f 19//49 20//49 26//49 25//49
f 20//50 24//50 30//50 26//50
f 23//51 22//51 28//51 29//51
f 21//52 19//52 25//52 27//52
f 31//53 32//53 34//53 33//53
f 27//54 25//54 31//54 33//54
f 30//55 29//55 35//55 36//55
f 28//56 27//56 33//56 37//56
f 25//57 26//57 38//57 31//57
f 26//58 30//58 36//58 38//58
f 34//59 32//59 36//59 35//59
f 37//60 33//60 34//60
f 35//61 37//61 34//61
f 38//62 36//62 32//62
f 31//63 38//63 32//63
f 5//64 6//64 44//64 43//64
f 3//64 4//64 42//64 41//64
f 2//64 1//64 39//64 40//64
f 6//64 2//64 40//64 44//64
f 4//64 5//64 43//64 42//64
f 1//64 3//64 41//64 39//64
f 70//65 76//65 80//65 74//65
f 80//64 86//64 85//64 79//64
f 73//66 79//66 78//66 72//66
f 71//67 77//67 75//67 69//67
f 74//68 80//68 79//68 73//68
f 72//69 78//69 77//69 71//69
f 69//70 75//70 76//70 70//70
f 82//71 88//71 92//71 86//71
f 78//64 84//64 83//64 77//64
f 75//64 81//64 82//64 76//64
f 76//64 82//64 86//64 80//64
f 79//64 85//64 84//64 78//64
f 77//64 83//64 81//64 75//64
f 92//72 98//72 97//72 91//72
f 85//73 91//73 90//73 84//73
f 83//74 89//74 87//74 81//74
f 86//75 92//75 91//75 85//75
f 84//76 90//76 89//76 83//76
f 81//77 87//77 88//77 82//77
f 97//78 103//78 105//78 96//78
f 90//79 96//79 95//79 89//79
f 87//80 93//80 94//80 88//80
f 88//81 94//81 98//81 92//81
f 91//82 97//82 96//82 90//82
f 89//83 95//83 93//83 87//83
f 99//84 101//84 102//84 100//84
f 95//85 101//85 99//85 93//85
f 98//86 104//86 103//86 97//86
f 96//87 105//87 101//87 95//87
f 93//88 99//88 106//88 94//88
f 94//89 106//89 104//89 98//89
f 102//90 103//90 104//90 100//90
f 105//91 102//91 101//91
f 103//92 102//92 105//92
f 106//93 100//93 104//93
f 99//94 100//94 106//94
f 73//34 111//34 112//34 74//34
f 71//34 109//34 110//34 72//34
f 70//34 108//34 107//34 69//34
f 74//34 112//34 108//34 70//34
f 72//34 110//34 111//34 73//34
f 69//34 107//34 109//34 71//34
usemtl Main
f 54//95 56//95 61//95 57//95
f 48//96 49//96 62//96 63//96
f 56//97 52//97 67//97 61//97
f 49//98 45//98 58//98 62//98
f 52//99 55//99 59//99 67//99
f 55//100 53//100 68//100 59//100
f 61//6 67//6 63//6 62//6
f 59//5 68//5 64//5 60//5
f 68//4 66//4 65//4 64//4
f 57//3 61//3 62//3 58//3
f 67//2 59//2 60//2 63//2
f 66//1 57//1 58//1 65//1
f 47//101 48//101 63//101 60//101
f 50//102 47//102 60//102 64//102
f 53//103 51//103 66//103 68//103
f 45//104 46//104 65//104 58//104
f 51//105 54//105 57//105 66//105
f 46//106 50//106 64//106 65//106
f 122//98 125//98 129//98 124//98
f 116//97 131//97 130//97 117//97
f 124//96 129//96 135//96 120//96
f 117//95 130//95 126//95 113//95
f 120//101 135//101 127//101 123//101
f 123//102 127//102 136//102 121//102
f 129//6 130//6 131//6 135//6
f 127//5 128//5 132//5 136//5
f 136//4 132//4 133//4 134//4
f 125//3 126//3 130//3 129//3
f 135//2 131//2 128//2 127//2
f 134//1 133//1 126//1 125//1
f 115//99 128//99 131//99 116//99
f 118//100 132//100 128//100 115//100
f 121//106 136//106 134//106 119//106
f 113//105 126//105 133//105 114//105
f 119//104 134//104 125//104 122//104
f 114//103 133//103 132//103 118//103
f 161//107 148//107 146//107 160//107
f 159//107 145//107 148//107 161//107
f 148//107 149//107 146//107
f 145//107 188//107 183//107 186//107 150//107 148//107
f 164//15 163//15 155//15 156//15
f 162//15 164//15 156//15 151//15
f 156//15 155//15 157//15
f 151//15 156//15 158//15 185//15 184//15 187//15
f 144//2 154//2 153//2 147//2
f 150//108 158//108 156//108 148//108
f 183//109 184//109 185//109 186//109
f 147//2 153//2 152//2 143//2
f 179//110 181//110 154//110 144//110
f 159//64 162//64 151//64 145//64
f 148//111 156//111 157//111 149//111
f 149//34 157//34 155//34 146//34
f 165//64 166//64 162//64 159//64
f 146//112 155//112 163//112 160//112
f 166//15 170//15 164//15 162//15
f 170//15 169//15 163//15 164//15
f 165//107 159//107 161//107 168//107
f 168//107 161//107 160//107 167//107
f 174//107 168//107 167//107 173//107
f 171//107 165//107 168//107 174//107
f 176//15 175//15 169//15 170//15
f 172//15 176//15 170//15 166//15
f 171//113 172//113 166//113 165//113
f 160//114 163//114 169//114 167//114
f 177//115 178//115 172//115 171//115
f 178//15 182//15 176//15 172//15
f 182//15 181//15 175//15 176//15
f 177//107 171//107 174//107 180//107
f 180//107 174//107 173//107 179//107
f 167//116 169//116 175//116 173//116
f 147//107 180//107 179//107 144//107
f 143//107 177//107 180//107 147//107
f 153//15 154//15 181//15 182//15
f 152//15 153//15 182//15 178//15
f 143//64 152//64 178//64 177//64
f 173//117 175//117 181//117 179//117
f 145//64 151//64 187//64 188//64
f 186//64 185//64 158//64 150//64
f 188//118 187//118 184//118 183//118
