# Blender v2.79 (sub 0) OBJ File: 'Column2.blend'
# www.blender.org
mtllib Column2.mtl
o Column2_Cube.081
v -0.540727 0.508889 -0.453752
v -0.540727 0.508889 0.453752
v 0.540727 0.508889 -0.453752
v 0.540727 0.508889 0.453752
v 0.453752 0.290631 0.540727
v 0.540727 0.290631 0.453752
v 0.540727 0.290631 -0.453752
v 0.453752 0.290631 -0.540727
v -0.453752 0.290631 -0.540727
v -0.540727 0.290631 -0.453752
v -0.540727 0.290631 0.453752
v -0.453752 0.290631 0.540727
v -0.556261 0.008336 0.652060
v -0.652059 0.008336 0.556261
v -0.652060 0.008336 -0.556261
v -0.556261 0.008336 -0.652059
v 0.652060 0.008336 0.556261
v 0.556261 0.008336 0.652059
v 0.556261 0.008336 -0.652060
v 0.652059 0.008336 -0.556261
v -0.595587 0.277396 0.499788
v -0.499788 0.277396 0.595587
v -0.641206 0.231777 0.545407
v -0.545407 0.231777 0.641206
v -0.499788 0.277396 -0.595587
v -0.595587 0.277396 -0.499788
v -0.545407 0.231777 -0.641206
v -0.641206 0.231777 -0.545407
v 0.499788 0.277396 0.595587
v 0.595587 0.277396 0.499788
v 0.545407 0.231777 0.641206
v 0.641206 0.231777 0.545407
v 0.595587 0.277396 -0.499788
v 0.499788 0.277396 -0.595587
v 0.641206 0.231777 -0.545407
v 0.545407 0.231777 -0.641206
v -0.453752 0.508889 0.540727
v 0.453752 0.508889 0.540727
v 0.453752 0.508889 -0.540727
v -0.453752 0.508889 -0.540727
v 0.416093 0.795179 0.495850
v 0.495850 0.795179 0.416093
v 0.495850 0.795179 -0.416093
v 0.416093 0.795179 -0.495850
v -0.416093 0.933696 0.495850
v 0.416093 0.933696 0.495850
v -0.495850 0.933696 -0.416093
v -0.495850 0.933696 0.416093
v 0.495850 0.933696 -0.416093
v 0.495850 0.933696 0.416093
v -0.416093 0.933696 -0.495850
v 0.416093 0.933696 -0.495850
v -0.487219 0.431889 0.571127
v -0.571127 0.431889 0.487219
v -0.571127 0.431889 -0.487219
v -0.487219 0.431889 -0.571127
v 0.571127 0.431889 0.487219
v 0.487219 0.431889 0.571127
v 0.487219 0.431889 -0.571127
v 0.571127 0.431889 -0.487219
v -0.521663 0.795179 0.437755
v -0.437755 0.795179 0.521663
v -0.561621 0.685332 0.477712
v -0.477712 0.685332 0.561621
v -0.437755 0.795179 -0.521663
v -0.521663 0.795179 -0.437755
v -0.477712 0.729337 -0.561621
v -0.561621 0.729337 -0.477712
v 0.437755 0.795179 0.521663
v 0.521663 0.795179 0.437755
v 0.477712 0.729337 0.561621
v 0.561621 0.729337 0.477712
v 0.521663 0.795179 -0.437755
v 0.437755 0.795179 -0.521663
v 0.561621 0.729337 -0.477712
v 0.477712 0.729337 -0.561621
v -0.416093 0.795179 -0.495850
v -0.495850 0.795179 -0.416093
v -0.495850 0.795179 0.416093
v -0.416093 0.795179 0.495850
v -0.399143 0.933696 0.475651
v -0.475651 0.933696 0.399143
v -0.475651 0.933696 -0.399143
v -0.399143 0.933696 -0.475651
v 0.399143 0.933696 -0.475651
v 0.475651 0.933696 -0.399143
v 0.475651 0.933696 0.399143
v 0.399143 0.933696 0.475651
v 0.540726 3.580040 -0.453752
v 0.540726 3.580039 0.453752
v -0.540727 3.580040 -0.453752
v -0.540727 3.580040 0.453752
v -0.453752 3.798297 0.540727
v -0.540727 3.798298 0.453752
v -0.540727 3.798298 -0.453752
v -0.453752 3.798298 -0.540727
v 0.453751 3.798297 -0.540727
v 0.540726 3.798297 -0.453752
v 0.540726 3.798297 0.453752
v 0.453751 3.798297 0.540727
v 0.595586 3.811532 0.499788
v 0.499787 3.811532 0.595586
v 0.641205 3.857151 0.545407
v 0.545406 3.857151 0.641206
v 0.499787 3.811532 -0.595587
v 0.595586 3.811532 -0.499788
v 0.545406 3.857151 -0.641206
v 0.641205 3.857151 -0.545407
v -0.499788 3.811532 0.595586
v -0.595587 3.811532 0.499788
v -0.545408 3.857151 0.641206
v -0.641207 3.857151 0.545407
v -0.595587 3.811532 -0.499788
v -0.499788 3.811532 -0.595587
v -0.641207 3.857152 -0.545407
v -0.545408 3.857152 -0.641206
v 0.453751 3.580039 0.540726
v -0.453752 3.580040 0.540726
v -0.453752 3.580040 -0.540727
v 0.453751 3.580040 -0.540727
v -0.416094 3.293749 0.495850
v -0.495851 3.293749 0.416093
v -0.495851 3.293750 -0.416094
v -0.416094 3.293750 -0.495850
v 0.416093 3.155232 0.495850
v -0.416094 3.155232 0.495850
v 0.495849 3.155232 -0.416094
v 0.495849 3.155232 0.416093
v -0.495851 3.155233 -0.416094
v -0.495851 3.155232 0.416093
v 0.416093 3.155232 -0.495850
v -0.416094 3.155233 -0.495850
v 0.487218 3.657039 0.571127
v 0.571127 3.657039 0.487219
v 0.571127 3.657039 -0.487219
v 0.487218 3.657039 -0.571127
v -0.571128 3.657039 0.487219
v -0.487219 3.657039 0.571127
v -0.487219 3.657040 -0.571127
v -0.571128 3.657040 -0.487219
v 0.521663 3.293749 0.437755
v 0.437754 3.293749 0.521663
v 0.561620 3.403596 0.477712
v 0.477711 3.403596 0.561620
v 0.437754 3.293749 -0.521664
v 0.521663 3.293749 -0.437755
v 0.477711 3.359591 -0.561621
v 0.561620 3.359591 -0.477712
v -0.437756 3.293749 0.521663
v -0.521664 3.293749 0.437755
v -0.477713 3.359591 0.561620
v -0.561621 3.359591 0.477712
v -0.521664 3.293750 -0.437755
v -0.437756 3.293750 -0.521664
v -0.561621 3.359591 -0.477712
v -0.477713 3.359591 -0.561621
v 0.416093 3.293749 -0.495850
v 0.495849 3.293749 -0.416094
v 0.495849 3.293749 0.416093
v 0.416093 3.293749 0.495850
v 0.399142 3.155232 0.475650
v 0.475650 3.155232 0.399143
v 0.475650 3.155232 -0.399143
v 0.399142 3.155232 -0.475651
v -0.399144 3.155233 -0.475651
v -0.475651 3.155233 -0.399143
v -0.475651 3.155232 0.399143
v -0.399144 3.155232 0.475650
v -0.000001 0.706647 -0.478802
v -0.000001 3.302727 -0.478802
v 0.281432 0.706647 -0.387359
v 0.281432 3.302727 -0.387359
v 0.455367 0.706647 -0.147958
v 0.455367 3.302727 -0.147958
v 0.455367 0.706647 0.147958
v 0.455367 3.302727 0.147958
v 0.281432 0.706647 0.387359
v 0.281432 3.302727 0.387359
v -0.000001 0.706647 0.478802
v -0.000001 3.302727 0.478802
v -0.281433 0.706647 0.387359
v -0.281433 3.302727 0.387359
v -0.455368 0.706647 0.147958
v -0.455368 3.302727 0.147958
v -0.455368 0.706647 -0.147958
v -0.455368 3.302727 -0.147958
v -0.281433 0.706647 -0.387359
v -0.281433 3.302727 -0.387359
v -0.098502 3.047148 0.446797
v -0.098502 0.962224 0.446797
v -0.182932 0.962224 0.419364
v -0.182932 3.047148 0.419364
v 0.182931 3.047148 0.419364
v 0.182931 0.962224 0.419364
v 0.098501 0.962224 0.446797
v 0.098501 3.047148 0.446797
v 0.394490 3.047148 0.231748
v 0.394490 0.962224 0.231748
v 0.342310 0.962224 0.303569
v 0.342310 3.047148 0.303569
v 0.455367 3.047148 -0.044387
v 0.455367 0.962224 -0.044387
v 0.455367 0.962224 0.044387
v 0.455367 3.047148 0.044387
v 0.342310 3.047148 -0.303569
v 0.342310 0.962224 -0.303569
v 0.394490 0.962224 -0.231748
v 0.394490 3.047148 -0.231748
v 0.098501 0.962224 -0.446797
v 0.182931 0.962224 -0.419364
v 0.182931 3.047148 -0.419364
v 0.098501 3.047148 -0.446797
v -0.098502 0.962224 -0.446797
v -0.098502 3.047148 -0.446797
v -0.182932 3.047148 -0.419364
v -0.182932 0.962224 -0.419364
v -0.394491 3.047148 -0.231748
v -0.394491 0.962224 -0.231748
v -0.342310 0.962224 -0.303569
v -0.342310 3.047148 -0.303569
v -0.455368 3.047148 0.044387
v -0.455368 0.962224 0.044387
v -0.455368 0.962224 -0.044387
v -0.455368 3.047148 -0.044387
v -0.342311 3.047148 0.303569
v -0.342311 0.962224 0.303569
v -0.394491 0.962224 0.231748
v -0.394491 3.047148 0.231748
v -0.091683 3.027248 0.415867
v -0.091683 0.982125 0.415867
v -0.170268 0.982125 0.390333
v -0.170268 3.027248 0.390333
v 0.170267 3.027248 0.390333
v 0.170267 0.982125 0.390333
v 0.091682 0.982125 0.415867
v 0.091682 3.027248 0.415867
v 0.367181 3.027248 0.215705
v 0.367181 0.982125 0.215705
v 0.318613 0.982125 0.282554
v 0.318613 3.027248 0.282554
v 0.423844 3.027248 -0.041315
v 0.423844 0.982125 -0.041315
v 0.423844 0.982125 0.041315
v 0.423844 3.027248 0.041315
v 0.318613 3.027248 -0.282554
v 0.318613 0.982125 -0.282554
v 0.367181 0.982125 -0.215705
v 0.367181 3.027248 -0.215705
v 0.091682 0.982125 -0.415867
v 0.170267 0.982125 -0.390333
v 0.170267 3.027248 -0.390333
v 0.091682 3.027248 -0.415867
v -0.091683 0.982125 -0.415867
v -0.091683 3.027248 -0.415867
v -0.170268 3.027248 -0.390333
v -0.170268 0.982125 -0.390333
v -0.367182 3.027248 -0.215705
v -0.367182 0.982125 -0.215705
v -0.318614 0.982125 -0.282554
v -0.318614 3.027248 -0.282554
v -0.423845 3.027248 0.041315
v -0.423845 0.982125 0.041315
v -0.423845 0.982125 -0.041315
v -0.423845 3.027248 -0.041315
v -0.318614 3.027248 0.282554
v -0.318614 0.982125 0.282554
v -0.367182 0.982125 0.215705
v -0.367182 3.027248 0.215705
v 0.536463 4.080592 0.604264
v 0.553943 4.032881 0.649742
v 0.604264 4.080592 0.536463
v 0.649741 4.032881 0.553943
v 0.604264 4.080592 -0.536463
v 0.649741 4.032881 -0.553943
v 0.536463 4.080592 -0.604264
v 0.553943 4.032881 -0.649742
v -0.604265 4.080593 0.536463
v -0.649743 4.032882 0.553943
v -0.536464 4.080592 0.604264
v -0.553944 4.032881 0.649742
v -0.536464 4.080593 -0.604264
v -0.553944 4.032882 -0.649742
v -0.604265 4.080593 -0.536463
v -0.649742 4.032882 -0.553943
vn 0.0000 0.7071 -0.7071
vn 0.0000 0.7071 0.7071
vn -0.0000 0.0485 -0.9988
vn 0.0000 0.0485 0.9988
vn 0.9988 0.0485 -0.0000
vn 0.2345 0.9721 0.0000
vn 0.7071 0.7071 0.0000
vn -0.7071 0.7071 0.0000
vn -0.9988 0.0485 0.0000
vn -0.4082 0.8165 0.4082
vn -0.4082 0.8165 -0.4082
vn 0.4082 0.8165 -0.4082
vn 0.4082 0.8165 0.4082
vn 0.7054 0.0685 0.7054
vn -0.7054 0.0685 0.7054
vn -0.7054 0.0685 -0.7054
vn 0.7054 0.0685 -0.7054
vn 0.0000 -1.0000 0.0000
vn 0.0000 0.9721 0.2345
vn 0.1290 0.9832 0.1290
vn 0.1290 0.9832 -0.1290
vn 0.0000 0.9721 -0.2345
vn -0.2345 0.9721 0.0000
vn -0.1290 0.9832 -0.1290
vn -0.1290 0.9832 0.1290
vn 0.0000 1.0000 0.0000
vn 0.0000 0.5188 -0.8549
vn -0.0100 0.4140 0.9102
vn 0.0000 0.0319 -0.9995
vn -0.0008 0.0345 0.9994
vn 0.9995 0.0319 0.0000
vn 0.8549 0.5188 0.0000
vn -0.9102 0.4140 0.0100
vn -0.9994 0.0345 0.0008
vn -0.6288 0.4574 0.6288
vn -0.5366 0.6513 -0.5366
vn 0.5366 0.6513 -0.5366
vn 0.5366 0.6513 0.5366
vn 0.7064 0.0452 0.7064
vn -0.7061 0.0530 0.7061
vn -0.7064 0.0452 -0.7064
vn 0.7064 0.0452 -0.7064
vn -0.0000 -0.7071 -0.7071
vn -0.0000 -0.7071 0.7071
vn -0.7054 -0.0685 0.7054
vn 0.9988 -0.0485 -0.0000
vn -0.7054 -0.0685 -0.7054
vn -0.2345 -0.9721 0.0000
vn -0.7071 -0.7071 -0.0000
vn 0.7071 -0.7071 0.0000
vn 0.7054 -0.0685 -0.7054
vn 0.4082 -0.8165 0.4082
vn 0.4082 -0.8165 -0.4082
vn -0.4082 -0.8165 -0.4083
vn -0.4082 -0.8165 0.4082
vn -0.9988 -0.0485 -0.0000
vn 0.0000 -0.0485 0.9988
vn 0.0000 -0.0485 -0.9988
vn 0.7054 -0.0685 0.7054
vn -0.0000 -0.9721 0.2345
vn -0.1290 -0.9832 0.1290
vn -0.1290 -0.9832 -0.1290
vn -0.0000 -0.9721 -0.2345
vn 0.2345 -0.9721 -0.0000
vn 0.1290 -0.9832 -0.1290
vn 0.1290 -0.9832 0.1290
vn -0.0000 -0.5188 -0.8549
vn 0.0100 -0.4140 0.9102
vn 0.0000 -0.0319 -0.9995
vn 0.0008 -0.0345 0.9994
vn -0.9995 -0.0319 -0.0000
vn -0.8549 -0.5188 -0.0000
vn 0.9102 -0.4140 0.0100
vn 0.9994 -0.0345 0.0008
vn 0.6288 -0.4574 0.6288
vn 0.5366 -0.6513 -0.5366
vn -0.5366 -0.6513 -0.5366
vn -0.5366 -0.6513 0.5366
vn -0.7064 -0.0452 0.7064
vn 0.7061 -0.0530 0.7061
vn 0.7064 -0.0452 -0.7064
vn -0.7064 -0.0452 -0.7064
vn 0.3090 -0.0000 -0.9511
vn 0.8090 -0.0000 -0.5878
vn 1.0000 0.0000 0.0000
vn 0.8090 0.0000 0.5878
vn 0.3090 -0.0000 0.9511
vn -0.3090 0.0000 0.9511
vn -0.8090 -0.0000 0.5878
vn -1.0000 -0.0000 0.0000
vn -0.8090 0.0000 -0.5878
vn -0.3090 -0.0000 -0.9511
vn 0.5065 0.0000 0.8622
vn -0.9765 0.0000 0.2153
vn 0.4319 -0.8456 -0.3138
vn -0.4319 -0.8456 0.3138
vn 0.4319 0.8456 -0.3138
vn -0.4319 0.8456 0.3138
vn 0.6635 0.0000 -0.7482
vn -0.6635 0.0000 0.7482
vn 0.6635 0.0000 0.7482
vn -0.6635 0.0000 -0.7482
vn -0.9166 0.0000 0.3998
vn -0.5065 0.0000 -0.8622
vn 0.9166 0.0000 -0.3998
vn 0.1650 0.8456 0.5077
vn -0.1650 0.8456 -0.5077
vn 0.1650 -0.8456 0.5077
vn -0.0970 0.0000 -0.9953
vn 0.0970 0.0000 0.9953
vn -0.1650 -0.8456 -0.5077
vn 0.9765 0.0000 -0.2153
vn -0.5338 0.8456 0.0000
vn 0.5338 0.8456 0.0000
vn -0.5338 -0.8456 0.0000
vn 0.5338 -0.8456 0.0000
vn 0.1650 0.8456 -0.5077
vn -0.0970 0.0000 0.9953
vn -0.9765 0.0000 -0.2153
vn 0.0970 0.0000 -0.9953
vn 0.1650 -0.8456 -0.5077
vn -0.1650 0.8456 0.5077
vn 0.9765 0.0000 0.2153
vn -0.1650 -0.8456 0.5077
vn 0.5065 0.0000 -0.8622
vn -0.5065 0.0000 0.8622
vn -0.9166 0.0000 -0.3998
vn 0.9166 0.0000 0.3998
vn -0.4319 0.8456 -0.3138
vn 0.4319 0.8456 0.3138
vn -0.4319 -0.8456 -0.3138
vn 0.4319 -0.8456 0.3138
vn -0.5170 0.6822 0.5170
vn 0.5170 0.6822 0.5170
vn 0.5170 0.6822 -0.5170
vn -0.5170 0.6822 -0.5170
vn 0.7238 0.6900 -0.0000
vn 0.0000 0.6900 -0.7238
vn -0.7238 0.6900 -0.0000
vn -0.0000 0.6900 0.7238
vn 0.7071 0.0000 -0.7071
vn 0.0000 0.0000 1.0000
vn 0.0000 0.0000 -1.0000
vn -0.7071 0.0000 -0.7071
vn 0.7071 0.0000 0.7071
vn -0.7071 0.0000 0.7071
usemtl Grey_Floor
s off
f 25//1 34//1 36//1 27//1
f 29//2 22//2 24//2 31//2
f 16//3 27//3 36//3 19//3
f 18//4 31//4 24//4 13//4
f 20//5 35//5 32//5 17//5
f 30//6 33//6 7//6 6//6
f 33//7 30//7 32//7 35//7
f 21//8 26//8 28//8 23//8
f 14//9 23//9 28//9 15//9
f 24//10 22//10 21//10 23//10
f 25//11 27//11 28//11 26//11
f 33//12 35//12 36//12 34//12
f 29//13 31//13 32//13 30//13
f 17//14 32//14 31//14 18//14
f 23//15 14//15 13//15 24//15
f 27//16 16//16 15//16 28//16
f 35//17 20//17 19//17 36//17
f 15//18 16//18 19//18 20//18 17//18 18//18 13//18 14//18
f 22//19 29//19 5//19 12//19
f 29//20 30//20 6//20 5//20
f 33//21 34//21 8//21 7//21
f 34//22 25//22 9//22 8//22
f 26//23 21//23 11//23 10//23
f 25//24 26//24 10//24 9//24
f 21//25 22//25 12//25 11//25
f 3//26 39//26 40//26 1//26 2//26 37//26 38//26 4//26
f 65//27 74//27 76//27 67//27
f 69//28 62//28 64//28 71//28
f 56//29 67//29 76//29 59//29
f 58//30 71//30 64//30 53//30
f 60//31 75//31 72//31 57//31
f 73//32 70//32 72//32 75//32
f 61//33 66//33 68//33 63//33
f 54//34 63//34 68//34 55//34
f 64//35 62//35 61//35 63//35
f 65//36 67//36 68//36 66//36
f 73//37 75//37 76//37 74//37
f 69//38 71//38 72//38 70//38
f 57//39 72//39 71//39 58//39
f 63//40 54//40 53//40 64//40
f 67//41 56//41 55//41 68//41
f 75//42 60//42 59//42 76//42
f 55//18 56//18 59//18 60//18 57//18 58//18 53//18 54//18
f 70//26 73//26 43//26 42//26
f 62//26 69//26 41//26 80//26
f 61//26 62//26 80//26 79//26
f 65//26 66//26 78//26 77//26
f 66//26 61//26 79//26 78//26
f 74//26 65//26 77//26 44//26
f 73//26 74//26 44//26 43//26
f 69//26 70//26 42//26 41//26
f 105//43 114//43 116//43 107//43
f 109//44 102//44 104//44 111//44
f 278//45 112//45 111//45 280//45
f 272//46 103//46 108//46 274//46
f 115//47 284//47 282//47 116//47
f 110//48 113//48 95//48 94//48
f 113//49 110//49 112//49 115//49
f 101//50 106//50 108//50 103//50
f 107//51 276//51 274//51 108//51
f 104//52 102//52 101//52 103//52
f 105//53 107//53 108//53 106//53
f 113//54 115//54 116//54 114//54
f 109//55 111//55 112//55 110//55
f 284//56 115//56 112//56 278//56
f 280//57 111//57 104//57 270//57
f 276//58 107//58 116//58 282//58
f 103//59 272//59 270//59 104//59
f 102//60 109//60 93//60 100//60
f 109//61 110//61 94//61 93//61
f 113//62 114//62 96//62 95//62
f 114//63 105//63 97//63 96//63
f 106//64 101//64 99//64 98//64
f 105//65 106//65 98//65 97//65
f 101//66 102//66 100//66 99//66
f 91//18 119//18 120//18 89//18 90//18 117//18 118//18 92//18
f 145//67 154//67 156//67 147//67
f 149//68 142//68 144//68 151//68
f 136//69 147//69 156//69 139//69
f 138//70 151//70 144//70 133//70
f 140//71 155//71 152//71 137//71
f 153//72 150//72 152//72 155//72
f 141//73 146//73 148//73 143//73
f 134//74 143//74 148//74 135//74
f 144//75 142//75 141//75 143//75
f 145//76 147//76 148//76 146//76
f 153//77 155//77 156//77 154//77
f 149//78 151//78 152//78 150//78
f 137//79 152//79 151//79 138//79
f 143//80 134//80 133//80 144//80
f 147//81 136//81 135//81 148//81
f 155//82 140//82 139//82 156//82
f 135//26 136//26 139//26 140//26 137//26 138//26 133//26 134//26
f 150//18 153//18 123//18 122//18
f 142//18 149//18 121//18 160//18
f 141//18 142//18 160//18 159//18
f 145//18 146//18 158//18 157//18
f 146//18 141//18 159//18 158//18
f 154//18 145//18 157//18 124//18
f 153//18 154//18 124//18 123//18
f 149//18 150//18 122//18 121//18
f 171//83 169//83 209//83 210//83
f 172//84 174//84 208//84 205//84
f 176//85 175//85 203//85 204//85
f 176//86 178//86 200//86 197//86
f 178//87 180//87 196//87 193//87
f 180//88 182//88 192//88 189//88
f 182//89 184//89 228//89 225//89
f 185//90 183//90 222//90 223//90
f 172//26 170//26 188//26 186//26 184//26 182//26 180//26 178//26 176//26 174//26
f 188//91 187//91 219//91 220//91
f 188//92 170//92 214//92 215//92
f 169//18 171//18 173//18 175//18 177//18 179//18 181//18 183//18 185//18 187//18
f 228//93 227//93 267//93 268//93
f 179//88 180//88 189//88 190//88
f 182//88 181//88 191//88 192//88
f 181//88 179//88 190//88 191//88
f 214//94 213//94 253//94 254//94
f 177//87 178//87 193//87 194//87
f 180//87 179//87 195//87 196//87
f 179//87 177//87 194//87 195//87
f 205//95 208//95 248//95 245//95
f 175//86 176//86 197//86 198//86
f 178//86 177//86 199//86 200//86
f 177//86 175//86 198//86 199//86
f 225//96 228//96 268//96 265//96
f 175//85 173//85 202//85 203//85
f 174//85 176//85 204//85 201//85
f 173//85 174//85 201//85 202//85
f 207//97 206//97 246//97 247//97
f 171//84 172//84 205//84 206//84
f 174//84 173//84 207//84 208//84
f 173//84 171//84 206//84 207//84
f 227//98 226//98 266//98 267//98
f 172//83 171//83 210//83 211//83
f 170//83 172//83 211//83 212//83
f 169//83 170//83 212//83 209//83
f 200//99 199//99 239//99 240//99
f 187//92 188//92 215//92 216//92
f 169//92 187//92 216//92 213//92
f 170//92 169//92 213//92 214//92
f 220//100 219//100 259//100 260//100
f 187//91 185//91 218//91 219//91
f 186//91 188//91 220//91 217//91
f 185//91 186//91 217//91 218//91
f 206//101 205//101 245//101 246//101
f 184//90 186//90 224//90 221//90
f 183//90 184//90 221//90 222//90
f 186//90 185//90 223//90 224//90
f 226//102 225//102 265//102 266//102
f 181//89 182//89 225//89 226//89
f 184//89 183//89 227//89 228//89
f 183//89 181//89 226//89 227//89
f 230//88 229//88 232//88 231//88
f 234//87 233//87 236//87 235//87
f 238//86 237//86 240//86 239//86
f 242//85 241//85 244//85 243//85
f 246//84 245//84 248//84 247//84
f 249//83 252//83 251//83 250//83
f 256//92 255//92 254//92 253//92
f 258//91 257//91 260//91 259//91
f 262//90 261//90 264//90 263//90
f 266//89 265//89 268//89 267//89
f 194//103 193//103 233//103 234//103
f 208//104 207//104 247//104 248//104
f 216//105 215//105 255//105 256//105
f 195//106 194//106 234//106 235//106
f 213//107 216//107 256//107 253//107
f 193//108 196//108 236//108 233//108
f 222//109 221//109 261//109 262//109
f 202//110 201//110 241//110 242//110
f 215//111 214//111 254//111 255//111
f 196//112 195//112 235//112 236//112
f 223//113 222//113 262//113 263//113
f 203//114 202//114 242//114 243//114
f 221//115 224//115 264//115 261//115
f 201//116 204//116 244//116 241//116
f 210//117 209//117 249//117 250//117
f 224//118 223//118 263//118 264//118
f 190//119 189//119 229//119 230//119
f 204//120 203//120 243//120 244//120
f 212//121 211//121 251//121 252//121
f 191//122 190//122 230//122 231//122
f 209//123 212//123 252//123 249//123
f 189//124 192//124 232//124 229//124
f 218//125 217//125 257//125 258//125
f 198//126 197//126 237//126 238//126
f 211//127 210//127 250//127 251//127
f 192//128 191//128 231//128 232//128
f 219//129 218//129 258//129 259//129
f 199//130 198//130 238//130 239//130
f 217//131 220//131 260//131 257//131
f 197//132 200//132 240//132 237//132
f 279//133 277//133 278//133 280//133
f 271//134 269//134 270//134 272//134
f 275//135 273//135 274//135 276//135
f 283//136 281//136 282//136 284//136
f 272//137 274//137 273//137 271//137
f 276//138 282//138 281//138 275//138
f 284//139 278//139 277//139 283//139
f 280//140 270//140 269//140 279//140
f 273//26 275//26 281//26 283//26 277//26 279//26 269//26 271//26
usemtl DarkGrey_Floor
f 7//141 8//141 39//141 3//141
f 12//142 5//142 38//142 37//142
f 10//90 11//90 2//90 1//90
f 6//85 7//85 3//85 4//85
f 8//143 9//143 40//143 39//143
f 9//144 10//144 1//144 40//144
f 5//145 6//145 4//145 38//145
f 11//146 12//146 37//146 2//146
f 78//90 79//90 48//90 47//90
f 41//145 42//145 50//145 46//145
f 77//144 78//144 47//144 51//144
f 44//143 77//143 51//143 52//143
f 80//142 41//142 46//142 45//142
f 43//141 44//141 52//141 49//141
f 79//146 80//146 45//146 48//146
f 51//26 47//26 83//26 84//26
f 42//85 43//85 49//85 50//85
f 52//26 51//26 84//26 85//26
f 45//26 46//26 88//26 81//26
f 49//26 52//26 85//26 86//26
f 48//26 45//26 81//26 82//26
f 50//26 49//26 86//26 87//26
f 47//26 48//26 82//26 83//26
f 46//26 50//26 87//26 88//26
f 81//26 88//26 87//26 86//26 85//26 84//26 83//26 82//26
f 95//144 96//144 119//144 91//144
f 100//142 93//142 118//142 117//142
f 98//85 99//85 90//85 89//85
f 94//90 95//90 91//90 92//90
f 96//143 97//143 120//143 119//143
f 97//141 98//141 89//141 120//141
f 93//146 94//146 92//146 118//146
f 99//145 100//145 117//145 90//145
f 158//85 159//85 128//85 127//85
f 121//146 122//146 130//146 126//146
f 157//141 158//141 127//141 131//141
f 124//143 157//143 131//143 132//143
f 160//142 121//142 126//142 125//142
f 123//144 124//144 132//144 129//144
f 159//145 160//145 125//145 128//145
f 131//18 127//18 163//18 164//18
f 122//90 123//90 129//90 130//90
f 132//18 131//18 164//18 165//18
f 125//18 126//18 168//18 161//18
f 129//18 132//18 165//18 166//18
f 128//18 125//18 161//18 162//18
f 130//18 129//18 166//18 167//18
f 127//18 128//18 162//18 163//18
f 126//18 130//18 167//18 168//18
f 161//18 168//18 167//18 166//18 165//18 164//18 163//18 162//18
