# Blender v2.79 (sub 0) OBJ File: 'Fence_End_Modular.blend'
# www.blender.org
mtllib Fence_End_Modular.mtl
o Fence_End_Modular_Cube
v -0.206188 -0.426092 -0.206189
v 0.206189 -0.426092 -0.206188
v -0.206189 -0.426092 0.206188
v 0.206188 -0.426092 0.206189
v 0.273744 -0.426092 -0.273744
v -0.273744 -0.426092 -0.273744
v 0.273744 -0.426092 0.273744
v -0.273744 -0.426092 0.273744
v 0.273744 -0.780422 -0.273744
v -0.273744 -0.780422 -0.273744
v 0.273744 -0.780422 0.273744
v -0.273744 -0.780422 0.273744
v 0.390598 -0.999089 -0.390598
v -0.390598 -0.999089 -0.390598
v 0.390598 -0.999089 0.390598
v -0.390598 -0.999089 0.390598
v -0.166718 0.294840 -0.166718
v -0.206188 0.231141 -0.206189
v 0.166718 0.294840 -0.166718
v 0.206189 0.231141 -0.206188
v -0.166718 0.294840 0.166718
v -0.206189 0.231141 0.206188
v 0.166718 0.294840 0.166718
v 0.206188 0.231141 0.206189
v 0.369984 -0.851557 -0.369984
v 0.390598 -0.877727 -0.390598
v -0.390598 -0.877727 -0.390598
v -0.369984 -0.851557 -0.369984
v 0.369984 -0.851557 0.369984
v 0.390598 -0.877727 0.390598
v -0.369984 -0.851557 0.369984
v -0.390598 -0.877727 0.390598
v 1.000000 -0.220983 -0.084656
v 1.000000 -0.033099 -0.084656
v 1.000000 -0.220983 0.084656
v 1.000000 -0.033099 0.084656
v -0.206189 -0.303970 0.206188
v -0.206189 -0.273684 0.206188
v -0.206188 -0.273684 -0.206189
v -0.206188 -0.303970 -0.206189
v 0.206189 -0.273684 -0.206188
v 0.206189 -0.303970 -0.206188
v 0.206188 -0.273684 0.206189
v 0.206188 -0.303970 0.206189
v -0.178376 -0.303989 0.178376
v -0.178376 -0.277789 0.178376
v -0.178376 -0.277789 -0.178376
v -0.178376 -0.303989 -0.178376
v 0.178376 -0.277789 -0.178376
v 0.178376 -0.303989 -0.178376
v 0.178376 -0.277789 0.178376
v 0.178376 -0.303989 0.178376
v 0.000000 -0.220983 -0.084656
v 0.000000 -0.033099 -0.084656
v 0.000000 -0.220983 0.084656
v 0.000000 -0.033099 0.084656
vn 0.0000 1.0000 0.0000
vn -1.0000 0.0000 0.0000
vn 1.0000 0.0000 0.0000
vn 0.0000 0.0000 1.0000
vn 0.0000 0.0000 -1.0000
vn 0.0000 -1.0000 -0.0000
vn -0.5944 0.8042 0.0000
vn 0.5944 0.8042 -0.0000
vn -0.0000 0.8042 0.5944
vn 0.0000 0.6188 -0.7856
vn 0.7856 0.6188 0.0000
vn -0.0000 0.6188 0.7856
vn -0.7856 0.6188 -0.0000
vn 0.0000 0.8042 -0.5944
vn 0.0000 0.5267 -0.8500
vn 0.8500 0.5267 0.0000
vn 0.0000 0.5267 0.8500
vn -0.8500 0.5267 -0.0000
vn 0.1460 -0.9893 -0.0000
vn 0.0000 -0.9893 -0.1460
vn -0.0000 -0.9893 0.1460
vn 0.0007 1.0000 -0.0000
vn -0.1460 -0.9893 0.0000
vn 0.0000 1.0000 -0.0007
vn -0.0000 1.0000 0.0007
vn -0.0007 1.0000 0.0000
usemtl DarkGrey_Floor
s off
f 2//1 4//1 7//1 5//1
f 8//2 6//2 10//2 12//2
f 1//1 2//1 5//1 6//1
f 4//1 3//1 8//1 7//1
f 3//1 1//1 6//1 8//1
f 5//3 7//3 11//3 9//3
f 7//4 8//4 12//4 11//4
f 6//5 5//5 9//5 10//5
f 32//2 27//2 14//2 16//2
f 26//3 30//3 15//3 13//3
f 30//4 32//4 16//4 15//4
f 27//5 26//5 13//5 14//5
f 13//6 15//6 16//6 14//6
f 12//7 10//7 28//7 31//7
f 9//8 11//8 29//8 25//8
f 11//9 12//9 31//9 29//9
f 26//10 27//10 28//10 25//10
f 30//11 26//11 25//11 29//11
f 32//12 30//12 29//12 31//12
f 27//13 32//13 31//13 28//13
f 10//14 9//14 25//14 28//14
f 53//5 54//5 34//5 33//5
f 33//3 34//3 36//3 35//3
f 36//1 34//1 54//1 56//1
f 33//6 35//6 55//6 53//6
f 35//4 36//4 56//4 55//4
usemtl Grey_Floor
f 23//1 19//1 17//1 21//1
f 43//4 24//4 22//4 38//4
f 39//5 18//5 20//5 41//5
f 41//3 20//3 24//3 43//3
f 17//15 19//15 20//15 18//15
f 19//16 23//16 24//16 20//16
f 23//17 21//17 22//17 24//17
f 21//18 17//18 18//18 22//18
f 38//2 22//2 18//2 39//2
f 3//2 37//2 40//2 1//2
f 41//19 43//19 51//19 49//19
f 2//3 42//3 44//3 4//3
f 39//20 41//20 49//20 47//20
f 1//5 40//5 42//5 2//5
f 43//21 38//21 46//21 51//21
f 4//4 44//4 37//4 3//4
f 40//22 37//22 45//22 48//22
f 45//2 46//2 47//2 48//2
f 50//3 49//3 51//3 52//3
f 48//5 47//5 49//5 50//5
f 52//4 51//4 46//4 45//4
f 38//23 39//23 47//23 46//23
f 37//24 44//24 52//24 45//24
f 42//25 40//25 48//25 50//25
f 44//26 42//26 50//26 52//26
