# Blender v2.79 (sub 0) OBJ File: 'Floor_BricksSeparate.blend'
# www.blender.org
mtllib Floor_BricksSeparate.mtl
o Floor_BricksSeparate_Cube.032
v -0.209891 0.231895 -0.354945
v -0.228891 0.221135 -0.354945
v -0.209891 0.221135 -0.335945
v -0.209891 0.221135 -0.725523
v -0.228891 0.221135 -0.706523
v -0.209891 0.231895 -0.706523
v 0.479415 0.221135 -0.335945
v 0.498415 0.221135 -0.354945
v 0.479415 0.231895 -0.354945
v 0.498415 0.221135 -0.706523
v 0.479415 0.221135 -0.725523
v 0.479415 0.231895 -0.706523
v -0.433908 0.162313 -0.197241
v -0.437945 0.151553 -0.215807
v -0.452475 0.151553 -0.193204
v -0.081137 0.151553 -0.273942
v -0.103740 0.151553 -0.288472
v -0.099703 0.162313 -0.269906
v -0.310496 0.151553 0.459792
v -0.287893 0.151553 0.474322
v -0.291930 0.162313 0.455756
v 0.046312 0.151553 0.401657
v 0.060841 0.151553 0.379054
v 0.042275 0.162313 0.383091
v -0.336047 0.151553 0.342278
v -0.317481 0.162313 0.338241
v 0.035291 0.151553 0.261540
v 0.016724 0.162313 0.265577
v -0.332165 0.162313 0.270703
v 0.017639 0.151553 0.194647
v -0.350731 0.151553 0.274740
v -0.020702 0.162313 0.202983
v -0.341863 0.162313 0.226100
v 0.010908 0.151553 0.149398
v -0.360429 0.151553 0.230137
v -0.007658 0.162313 0.153435
v 0.113636 0.221135 -0.338773
v 0.113636 0.231895 -0.363565
v 0.151346 0.221135 -0.725523
v 0.151346 0.231895 -0.706523
v 0.173243 0.221135 -0.335945
v 0.210954 0.231895 -0.690361
v 0.173243 0.231895 -0.354945
v 0.210954 0.221135 -0.725345
v -0.411157 0.162313 -0.092601
v -0.415584 0.162313 -0.112963
v -0.420011 0.162313 -0.133325
v -0.058386 0.151553 -0.169303
v -0.062640 0.151553 -0.189702
v -0.067240 0.151553 -0.210026
v -0.438578 0.151553 -0.129288
v -0.434150 0.151553 -0.108926
v -0.429723 0.151553 -0.088564
v -0.085806 0.162313 -0.205989
v -0.092785 0.162313 -0.183148
v -0.076952 0.162313 -0.165266
v -0.209891 -0.018433 -0.354945
v -0.228891 -0.007673 -0.354945
v -0.209891 -0.007673 -0.335945
v -0.209891 -0.007673 -0.725523
v -0.228891 -0.007673 -0.706523
v -0.209891 -0.018433 -0.706523
v 0.479415 -0.007673 -0.335945
v 0.498415 -0.007673 -0.354945
v 0.479415 -0.018433 -0.354945
v 0.498415 -0.007673 -0.706523
v 0.479415 -0.007673 -0.725523
v 0.479415 -0.018433 -0.706523
v -0.433908 -0.024190 -0.197241
v -0.437945 -0.013430 -0.215807
v -0.452475 -0.013430 -0.193204
v -0.081137 -0.013430 -0.273942
v -0.103740 -0.013430 -0.288472
v -0.099703 -0.024190 -0.269906
v -0.310496 -0.013430 0.459792
v -0.287893 -0.013430 0.474322
v -0.291930 -0.024190 0.455756
v 0.046312 -0.013430 0.401657
v 0.060841 -0.013430 0.379054
v 0.042275 -0.024190 0.383091
v -0.336047 -0.013430 0.342278
v -0.317481 -0.024190 0.338241
v 0.035290 -0.013430 0.261540
v 0.016724 -0.024190 0.265577
v -0.332165 -0.024190 0.270703
v 0.017639 -0.013430 0.194647
v -0.350731 -0.013430 0.274740
v -0.020702 -0.024190 0.202983
v -0.341863 -0.024190 0.226100
v 0.010908 -0.013430 0.149398
v -0.360429 -0.013430 0.230137
v -0.007658 -0.024190 0.153435
v 0.113636 -0.007673 -0.338774
v 0.113635 -0.018433 -0.363565
v 0.151346 -0.007673 -0.725523
v 0.151346 -0.018433 -0.706523
v 0.173243 -0.007673 -0.335945
v 0.210953 -0.018433 -0.690361
v 0.173243 -0.018433 -0.354945
v 0.210953 -0.007673 -0.725345
v -0.411157 -0.024190 -0.092601
v -0.415584 -0.024190 -0.112963
v -0.420011 -0.024190 -0.133325
v -0.058386 -0.013430 -0.169303
v -0.062640 -0.013430 -0.189702
v -0.067240 -0.013430 -0.210026
v -0.438578 -0.013430 -0.129288
v -0.434150 -0.013430 -0.108926
v -0.429723 -0.013430 -0.088564
v -0.085806 -0.024190 -0.205989
v -0.092785 -0.024190 -0.183148
v -0.076952 -0.024190 -0.165266
v 0.164922 0.001397 0.145014
v 0.429882 0.001397 0.145014
v 0.164922 0.001397 0.442719
v 0.429882 0.001397 0.442719
v 0.137140 0.006273 0.263424
v 0.457663 0.006273 0.263424
v 0.214910 0.106955 0.199277
v 0.197611 0.109991 0.273008
v 0.214910 0.106955 0.384650
v 0.379893 0.106955 0.199277
v 0.397192 0.109991 0.273008
v 0.379893 0.106955 0.384650
vn 0.0030 0.0000 -1.0000
vn 1.0000 -0.0000 -0.0000
vn 0.0000 0.9996 0.0272
vn 0.0000 0.0000 -1.0000
vn -0.9772 0.0000 0.2125
vn 0.2125 -0.0000 0.9772
vn -0.4420 0.7805 0.4420
vn -0.4420 0.7805 -0.4420
vn 0.4420 0.7805 0.4420
vn 0.4420 0.7805 -0.4420
vn -0.5258 0.7805 -0.3380
vn 0.3380 0.7805 -0.5258
vn -0.3380 0.7805 0.5258
vn 0.5258 0.7805 0.3380
vn -0.7071 0.0000 0.7071
vn -0.0000 0.8702 0.4928
vn -0.7071 0.0000 -0.7071
vn 0.0000 0.8702 -0.4928
vn -0.4928 0.8702 0.0000
vn 0.4928 0.8702 0.0000
vn -0.2125 0.0000 -0.9772
vn -0.4815 0.8702 0.1047
vn 0.8412 -0.0000 0.5407
vn 0.4815 0.8702 -0.1047
vn -0.1047 0.8702 -0.4815
vn 0.1047 0.8702 0.4815
vn -0.5407 0.0000 0.8412
vn 0.9772 -0.0000 -0.2125
vn 0.3240 0.9360 -0.1378
vn 0.9669 -0.0000 -0.2551
vn 0.3581 0.9334 0.0238
vn 0.0507 0.9277 -0.3698
vn 0.0078 0.8975 0.4410
vn 0.0087 -0.0000 1.0000
vn -0.0007 0.0000 -1.0000
vn 0.0000 1.0000 0.0000
vn -0.0474 -0.0000 0.9989
vn -0.0113 0.9289 -0.3703
vn -0.0423 0.8967 0.4406
vn 0.9753 -0.0000 -0.2208
vn 0.9891 -0.0000 -0.1471
vn 0.3619 0.9127 -0.1899
vn 0.4081 0.9127 0.0225
vn 0.9789 -0.0000 -0.2041
vn -1.0000 0.0000 0.0000
vn 0.7071 -0.0000 0.7071
vn 0.5407 -0.0000 -0.8412
vn -0.8412 0.0000 -0.5407
vn -0.0000 -0.0000 1.0000
vn -0.4420 -0.7805 0.4420
vn -0.4420 -0.7805 -0.4420
vn 0.4420 -0.7805 0.4420
vn 0.4420 -0.7805 -0.4420
vn -0.5258 -0.7805 -0.3380
vn 0.3380 -0.7805 -0.5258
vn -0.3380 -0.7805 0.5258
vn 0.5258 -0.7805 0.3380
vn -0.0000 -0.8702 0.4928
vn -0.0000 -0.8702 -0.4928
vn -0.4928 -0.8702 -0.0000
vn 0.4928 -0.8702 -0.0000
vn -0.4815 -0.8702 0.1047
vn 0.4815 -0.8702 -0.1047
vn -0.1047 -0.8702 -0.4815
vn 0.1047 -0.8702 0.4815
vn 0.3240 -0.9360 -0.1378
vn 0.3581 -0.9334 0.0238
vn 0.0507 -0.9277 -0.3698
vn 0.0078 -0.8975 0.4410
vn -0.0000 -1.0000 -0.0000
vn -0.0113 -0.9289 -0.3703
vn -0.0423 -0.8967 0.4406
vn 0.3619 -0.9127 -0.1899
vn 0.4081 -0.9127 0.0225
vn 0.7071 0.0000 -0.7071
vn 0.0000 0.9992 -0.0411
vn -0.0000 -0.9996 -0.0272
vn -0.0000 -0.9992 0.0411
vn -0.8345 0.5066 -0.2167
vn -0.8604 0.4881 0.1466
vn 0.0000 0.4820 0.8762
vn 0.8345 0.5066 -0.2167
vn 0.0000 0.4572 -0.8894
vn 0.8604 0.4881 0.1466
usemtl Grey_Floor
s off
f 44//1 100//1 95//1 39//1
f 66//2 10//2 8//2 64//2
f 124//3 123//3 120//3 121//3
f 39//4 95//4 60//4 4//4
f 25//5 81//5 75//5 19//5
f 78//6 22//6 20//6 76//6
f 1//7 2//7 3//7
f 4//8 5//8 6//8
f 7//9 8//9 9//9
f 10//10 11//10 12//10
f 13//11 14//11 15//11
f 16//12 17//12 18//12
f 19//13 20//13 21//13
f 22//14 23//14 24//14
f 2//15 58//15 59//15 3//15
f 41//16 7//16 9//16 43//16
f 60//17 61//17 5//17 4//17
f 39//18 4//18 6//18 40//18
f 1//19 6//19 5//19 2//19
f 12//20 9//20 8//20 10//20
f 17//21 73//21 70//21 14//21
f 25//22 19//22 21//22 26//22
f 22//23 78//23 79//23 23//23
f 50//24 16//24 18//24 54//24
f 13//25 18//25 17//25 14//25
f 24//26 21//26 20//26 22//26
f 23//24 27//24 28//24 24//24
f 31//22 25//22 26//22 29//22
f 75//27 76//27 20//27 19//27
f 23//28 79//28 83//28 27//28
f 31//5 87//5 81//5 25//5
f 35//22 31//22 29//22 33//22
f 27//29 30//29 32//29 28//29
f 35//5 91//5 87//5 31//5
f 53//22 35//22 33//22 45//22
f 27//30 83//30 86//30 30//30
f 30//31 34//31 36//31 32//31
f 53//5 109//5 91//5 35//5
f 44//32 39//32 40//32 42//32
f 3//33 37//33 38//33 1//33
f 3//34 59//34 93//34 37//34
f 11//35 67//35 100//35 44//35
f 38//36 43//36 9//36 12//36 42//36 40//36 6//36 1//36
f 37//37 93//37 97//37 41//37
f 11//38 44//38 42//38 12//38
f 37//39 41//39 43//39 38//39
f 49//40 105//40 106//40 50//40
f 30//41 86//41 90//41 34//41
f 15//5 71//5 107//5 51//5
f 51//5 107//5 108//5 52//5
f 47//36 46//36 45//36 33//36 29//36 26//36 21//36 24//36 28//36 32//36 36//36 56//36 55//36 54//36 18//36 13//36
f 15//22 51//22 47//22 13//22
f 51//22 52//22 46//22 47//22
f 52//22 53//22 45//22 46//22
f 34//24 48//24 56//24 36//24
f 48//42 49//42 55//42 56//42
f 49//43 50//43 54//43 55//43
f 52//5 108//5 109//5 53//5
f 34//28 90//28 104//28 48//28
f 48//44 104//44 105//44 49//44
f 5//45 61//45 58//45 2//45
f 63//46 64//46 8//46 7//46
f 72//47 73//47 17//47 16//47
f 14//48 70//48 71//48 15//48
f 41//49 97//49 63//49 7//49
f 50//28 106//28 72//28 16//28
f 57//50 59//50 58//50
f 60//51 62//51 61//51
f 63//52 65//52 64//52
f 66//53 68//53 67//53
f 69//54 71//54 70//54
f 72//55 74//55 73//55
f 75//56 77//56 76//56
f 78//57 80//57 79//57
f 97//58 99//58 65//58 63//58
f 95//59 96//59 62//59 60//59
f 57//60 58//60 61//60 62//60
f 68//61 66//61 64//61 65//61
f 81//62 82//62 77//62 75//62
f 106//63 110//63 74//63 72//63
f 69//64 70//64 73//64 74//64
f 80//65 78//65 76//65 77//65
f 79//63 80//63 84//63 83//63
f 87//62 85//62 82//62 81//62
f 91//62 89//62 85//62 87//62
f 83//66 84//66 88//66 86//66
f 109//62 101//62 89//62 91//62
f 86//67 88//67 92//67 90//67
f 100//68 98//68 96//68 95//68
f 59//69 57//69 94//69 93//69
f 94//70 57//70 62//70 96//70 98//70 68//70 65//70 99//70
f 67//71 68//71 98//71 100//71
f 93//72 94//72 99//72 97//72
f 103//70 69//70 74//70 110//70 111//70 112//70 92//70 88//70 84//70 80//70 77//70 82//70 85//70 89//70 101//70 102//70
f 71//62 69//62 103//62 107//62
f 107//62 103//62 102//62 108//62
f 108//62 102//62 101//62 109//62
f 90//63 92//63 112//63 104//63
f 104//73 112//73 111//73 105//73
f 105//74 111//74 110//74 106//74
f 10//75 66//75 67//75 11//75
f 123//76 122//76 119//76 120//76
f 116//77 115//77 117//77 118//77
f 118//78 117//78 113//78 114//78
f 120//79 119//79 113//79 117//79
f 121//80 120//80 117//80 115//80
f 124//81 121//81 115//81 116//81
f 122//82 123//82 118//82 114//82
f 119//83 122//83 114//83 113//83
f 123//84 124//84 116//84 118//84
