# Blender v2.79 (sub 0) OBJ File: 'Floor_BricksSeparate2.blend'
# www.blender.org
mtllib Floor_BricksSeparate2.mtl
o Floor_BricksSeparate2_Cube.032
v -0.209891 0.231895 -0.354945
v -0.228891 0.221135 -0.354945
v -0.209891 0.221135 -0.335945
v -0.209891 0.221135 -0.725523
v -0.228891 0.221135 -0.706523
v -0.209891 0.231895 -0.706523
v 0.479415 0.221135 -0.335945
v 0.498415 0.221135 -0.354945
v 0.479415 0.231895 -0.354945
v 0.498415 0.221135 -0.706523
v 0.479415 0.221135 -0.725523
v 0.479415 0.231895 -0.706523
v 0.460248 0.162313 -0.282547
v 0.479242 0.151553 -0.283038
v 0.459757 0.151553 -0.301541
v 0.469583 0.151553 0.078346
v 0.488085 0.151553 0.058861
v 0.469092 0.162313 0.059352
v -0.208273 0.151553 -0.284262
v -0.226775 0.151553 -0.264777
v -0.207781 0.162313 -0.265268
v -0.217932 0.151553 0.077122
v -0.198447 0.151553 0.095624
v -0.198938 0.162313 0.076631
v -0.088053 0.151553 -0.287371
v -0.087562 0.162313 -0.268378
v -0.078227 0.151553 0.092515
v -0.078718 0.162313 0.073521
v -0.018469 0.162313 -0.270165
v -0.009213 0.151553 0.087693
v -0.018960 0.151553 -0.289158
v -0.010227 0.162313 0.048469
v 0.027161 0.162313 -0.271345
v 0.036496 0.151553 0.089548
v 0.026670 0.151553 -0.290339
v 0.036005 0.162313 0.070554
v 0.113636 0.221135 -0.338773
v 0.113636 0.231895 -0.363565
v 0.151346 0.221135 -0.725523
v 0.151346 0.231895 -0.706523
v 0.173243 0.221135 -0.335945
v 0.210954 0.231895 -0.690361
v 0.173243 0.231895 -0.354945
v 0.210954 0.221135 -0.725345
v 0.353199 0.162313 -0.279778
v 0.374030 0.162313 -0.280317
v 0.394861 0.162313 -0.280856
v 0.362534 0.151553 0.081115
v 0.383369 0.151553 0.080753
v 0.404195 0.151553 0.080037
v 0.394369 0.151553 -0.299849
v 0.373539 0.151553 -0.299311
v 0.352708 0.151553 -0.298772
v 0.403704 0.162313 0.061043
v 0.382572 0.162313 0.049914
v 0.362043 0.162313 0.062121
v -0.209891 -0.018433 -0.354945
v -0.228891 -0.007673 -0.354945
v -0.209891 -0.007673 -0.335945
v -0.209891 -0.007673 -0.725523
v -0.228891 -0.007673 -0.706523
v -0.209891 -0.018433 -0.706523
v 0.479415 -0.007673 -0.335945
v 0.498415 -0.007673 -0.354945
v 0.479415 -0.018433 -0.354945
v 0.498415 -0.007673 -0.706523
v 0.479415 -0.007673 -0.725523
v 0.479415 -0.018433 -0.706523
v 0.460248 -0.024190 -0.282547
v 0.479242 -0.013430 -0.283038
v 0.459757 -0.013430 -0.301541
v 0.469583 -0.013430 0.078346
v 0.488085 -0.013430 0.058861
v 0.469092 -0.024190 0.059352
v -0.208273 -0.013430 -0.284262
v -0.226775 -0.013430 -0.264777
v -0.207781 -0.024190 -0.265268
v -0.217932 -0.013430 0.077122
v -0.198447 -0.013430 0.095624
v -0.198938 -0.024190 0.076631
v -0.088053 -0.013430 -0.287371
v -0.087562 -0.024190 -0.268378
v -0.078227 -0.013430 0.092515
v -0.078718 -0.024190 0.073521
v -0.018469 -0.024190 -0.270165
v -0.009213 -0.013430 0.087693
v -0.018960 -0.013430 -0.289158
v -0.010227 -0.024190 0.048469
v 0.027161 -0.024190 -0.271345
v 0.036496 -0.013430 0.089548
v 0.026670 -0.013430 -0.290339
v 0.036005 -0.024190 0.070554
v 0.113636 -0.007673 -0.338774
v 0.113635 -0.018433 -0.363565
v 0.151346 -0.007673 -0.725523
v 0.151346 -0.018433 -0.706523
v 0.173243 -0.007673 -0.335945
v 0.210953 -0.018433 -0.690361
v 0.173243 -0.018433 -0.354945
v 0.210953 -0.007673 -0.725345
v 0.353199 -0.024190 -0.279778
v 0.374030 -0.024190 -0.280317
v 0.394861 -0.024190 -0.280856
v 0.362534 -0.013430 0.081115
v 0.383369 -0.013430 0.080753
v 0.404195 -0.013430 0.080037
v 0.394369 -0.013430 -0.299849
v 0.373539 -0.013430 -0.299311
v 0.352708 -0.013430 -0.298772
v 0.403704 -0.024190 0.061043
v 0.382572 -0.024190 0.049914
v 0.362043 -0.024190 0.062121
v 0.164922 0.001397 0.145014
v 0.429882 0.001397 0.145014
v 0.164922 0.001397 0.442719
v 0.429882 0.001397 0.442719
v 0.137140 0.006273 0.263424
v 0.457663 0.006273 0.263424
v 0.214910 0.106955 0.199277
v 0.197611 0.109991 0.273008
v 0.214910 0.106955 0.384650
v 0.379893 0.106955 0.199277
v 0.397192 0.109991 0.273008
v 0.379893 0.106955 0.384650
v 0.166890 0.455472 -0.462352
v 0.166890 0.449573 -0.478870
v 0.151628 0.446957 -0.463834
v 0.464565 0.446957 -0.463834
v 0.449303 0.449573 -0.478870
v 0.449303 0.455472 -0.462352
v 0.151628 0.352046 0.081672
v 0.166890 0.349430 0.096708
v 0.166890 0.360562 0.083153
v 0.449302 0.349430 0.096708
v 0.464565 0.352046 0.081672
v 0.449302 0.360562 0.083153
v 0.095036 0.308134 0.047060
v 0.096662 0.297004 0.060517
v 0.110059 0.299687 0.043808
v -0.193118 0.298334 0.079330
v -0.176199 0.295786 0.092487
v -0.177825 0.306917 0.079030
v 0.048112 0.391668 -0.481401
v 0.031192 0.394216 -0.494558
v 0.033088 0.400115 -0.478150
v -0.241669 0.392998 -0.462588
v -0.255066 0.390315 -0.445879
v -0.239773 0.398898 -0.446180
v 0.059260 0.375115 -0.386884
v 0.044236 0.383562 -0.383632
v -0.243918 0.373762 -0.351361
v -0.228624 0.382345 -0.351662
v 0.050643 0.374049 -0.329311
v -0.235088 0.364259 -0.297324
v 0.065667 0.365601 -0.332563
v -0.203650 0.372914 -0.299516
v 0.054875 0.367766 -0.293436
v -0.233279 0.357966 -0.261166
v 0.069898 0.359319 -0.296688
v -0.217986 0.366548 -0.261466
v 0.153900 0.402411 -0.207801
v 0.173814 0.410926 -0.206319
v 0.464565 0.397218 -0.177957
v 0.449302 0.405734 -0.176475
v 0.151628 0.394203 -0.160628
v 0.436320 0.397526 -0.129303
v 0.166890 0.402719 -0.159147
v 0.464422 0.389011 -0.130785
v 0.085109 0.322874 -0.037103
v 0.087040 0.320006 -0.020726
v 0.088972 0.317137 -0.004349
v -0.203045 0.313073 -0.004832
v -0.201255 0.310205 0.011561
v -0.199182 0.307337 0.027922
v 0.103996 0.308690 -0.007600
v 0.102064 0.311558 -0.023977
v 0.100132 0.314426 -0.040354
v -0.183889 0.315920 0.027621
v -0.176508 0.318830 0.010153
v -0.187752 0.321656 -0.005133
v 0.166890 0.257367 -0.496820
v 0.166890 0.268498 -0.510375
v 0.151628 0.265882 -0.495339
v 0.464565 0.265882 -0.495339
v 0.449303 0.268498 -0.510375
v 0.449303 0.257367 -0.496820
v 0.151628 0.170971 0.050167
v 0.166890 0.168355 0.065203
v 0.166890 0.162456 0.048685
v 0.449303 0.168355 0.065203
v 0.464565 0.170971 0.050167
v 0.449303 0.162456 0.048685
v 0.092698 0.160539 0.021487
v 0.094594 0.166439 0.037895
v 0.107991 0.169122 0.021186
v -0.195186 0.167769 0.056708
v -0.178267 0.165221 0.069865
v -0.180163 0.159321 0.053457
v 0.046044 0.261103 -0.504024
v 0.029124 0.263651 -0.517180
v 0.030751 0.252520 -0.503723
v -0.243737 0.262433 -0.485210
v -0.257134 0.259750 -0.468501
v -0.242110 0.251302 -0.471753
v 0.057192 0.244550 -0.409506
v 0.041899 0.235967 -0.409205
v -0.245986 0.243197 -0.373984
v -0.230962 0.234749 -0.377235
v 0.048306 0.226454 -0.354884
v -0.237156 0.233694 -0.319946
v 0.063599 0.235037 -0.355185
v -0.205988 0.225319 -0.325090
v 0.052537 0.220171 -0.319009
v -0.235347 0.227401 -0.283788
v 0.067830 0.228754 -0.319310
v -0.220324 0.218953 -0.287039
v 0.153900 0.221336 -0.239305
v 0.173814 0.212820 -0.240787
v 0.464565 0.216143 -0.209462
v 0.449303 0.207628 -0.210943
v 0.151628 0.213128 -0.192133
v 0.436320 0.199421 -0.163771
v 0.166890 0.204613 -0.193615
v 0.464422 0.207936 -0.162289
v 0.082771 0.175279 -0.062676
v 0.084703 0.172410 -0.046299
v 0.086634 0.169542 -0.029922
v -0.205113 0.182508 -0.027454
v -0.203323 0.179640 -0.011061
v -0.201250 0.176772 0.005300
v 0.101928 0.178125 -0.030222
v 0.099996 0.180993 -0.046600
v 0.098064 0.183862 -0.062977
v -0.186226 0.168325 0.002048
v -0.178846 0.171234 -0.015420
v -0.190090 0.174061 -0.030706
v -0.423173 -0.002680 0.228228
v -0.280311 -0.002680 0.228228
v -0.423173 -0.002680 0.388745
v -0.308690 -0.002680 0.363520
v -0.544032 -0.013860 -0.156404
v -0.807250 -0.013860 -0.370688
v -0.396220 0.054235 0.257486
v -0.303265 -0.013860 -0.452151
v -0.396220 0.054235 0.357435
v -0.307264 0.054235 0.257486
v -0.566483 -0.013860 -0.666436
v -0.335643 0.054235 0.332210
v -0.689845 -0.007614 -0.571272
v -0.371430 -0.007615 -0.312052
v -0.560708 0.121360 -0.572102
v -0.637523 0.125249 -0.512846
v -0.710627 0.121360 -0.387948
v -0.396810 0.121360 -0.438673
v -0.439254 0.125249 -0.351436
v -0.546729 0.121360 -0.254519
vn 0.0030 0.0000 -1.0000
vn 1.0000 -0.0000 -0.0000
vn 0.0000 0.9996 0.0272
vn 0.0000 0.0000 -1.0000
vn -0.0259 0.0000 -0.9997
vn -0.9997 -0.0000 0.0259
vn -0.4420 0.7805 0.4420
vn -0.4420 0.7805 -0.4420
vn 0.4420 0.7805 0.4420
vn 0.4420 0.7805 -0.4420
vn 0.4304 0.7805 -0.4533
vn 0.4533 0.7805 0.4304
vn -0.4533 0.7805 -0.4304
vn -0.4304 0.7805 0.4533
vn -0.7071 0.0000 0.7071
vn -0.0000 0.8702 0.4928
vn -0.7071 0.0000 -0.7071
vn 0.0000 0.8702 -0.4928
vn -0.4928 0.8702 0.0000
vn 0.4928 0.8702 0.0000
vn 0.9997 0.0000 -0.0259
vn -0.0127 0.8702 -0.4926
vn -0.6886 -0.0000 0.7252
vn 0.0127 0.8702 0.4926
vn 0.4926 0.8702 -0.0127
vn -0.4926 0.8702 0.0127
vn -0.7252 0.0000 -0.6886
vn 0.0259 -0.0000 0.9997
vn 0.0747 0.9360 0.3440
vn 0.0697 -0.0000 0.9976
vn -0.0904 0.9334 0.3474
vn 0.0507 0.9277 -0.3698
vn 0.0078 0.8975 0.4410
vn 0.0087 -0.0000 1.0000
vn -0.0007 0.0000 -1.0000
vn 0.0000 1.0000 0.0000
vn -0.0474 -0.0000 0.9989
vn -0.0113 0.9289 -0.3703
vn -0.0423 0.8967 0.4406
vn 0.0344 -0.0000 0.9994
vn -0.0405 -0.0000 0.9992
vn 0.1188 0.9127 0.3911
vn -0.0985 0.9127 0.3967
vn 0.0174 -0.0000 0.9998
vn -1.0000 0.0000 0.0000
vn 0.7071 -0.0000 0.7071
vn 0.7252 0.0000 0.6886
vn 0.6886 0.0000 -0.7252
vn -0.0000 -0.0000 1.0000
vn -0.4420 -0.7805 0.4420
vn -0.4420 -0.7805 -0.4420
vn 0.4420 -0.7805 0.4420
vn 0.4420 -0.7805 -0.4420
vn 0.4304 -0.7805 -0.4533
vn 0.4533 -0.7805 0.4304
vn -0.4533 -0.7805 -0.4304
vn -0.4304 -0.7805 0.4533
vn -0.0000 -0.8702 0.4928
vn -0.0000 -0.8702 -0.4928
vn -0.4928 -0.8702 -0.0000
vn 0.4928 -0.8702 -0.0000
vn -0.0127 -0.8702 -0.4926
vn 0.0127 -0.8702 0.4926
vn 0.4926 -0.8702 -0.0127
vn -0.4926 -0.8702 0.0127
vn 0.0747 -0.9360 0.3440
vn -0.0904 -0.9334 0.3474
vn 0.0507 -0.9277 -0.3698
vn 0.0078 -0.8975 0.4410
vn -0.0000 -1.0000 -0.0000
vn -0.0113 -0.9289 -0.3703
vn -0.0423 -0.8967 0.4406
vn 0.1188 -0.9127 0.3911
vn -0.0985 -0.9127 0.3967
vn 0.7071 0.0000 -0.7071
vn 0.0000 0.9992 -0.0411
vn -0.0000 -0.9996 -0.0272
vn -0.0000 -0.9992 0.0411
vn -0.8345 0.5066 -0.2167
vn -0.8604 0.4881 0.1466
vn 0.0000 0.4820 0.8762
vn 0.8345 0.5066 -0.2167
vn 0.0000 0.4572 -0.8894
vn 0.8604 0.4881 0.1466
vn 1.0000 -0.0005 0.0029
vn -0.0000 -0.1714 0.9852
vn 0.9932 0.0044 -0.1164
vn -0.1154 0.1714 -0.9784
vn -0.4420 0.8447 -0.3017
vn 0.4420 0.8447 -0.3017
vn -0.4420 0.6932 0.5693
vn 0.4420 0.6932 0.5693
vn 0.5022 0.6952 0.5143
vn -0.3758 0.6913 0.6172
vn 0.4002 0.8467 -0.3507
vn -0.4779 0.8428 -0.2478
vn -0.7071 0.1212 -0.6966
vn -0.4928 0.8573 0.1492
vn 0.7071 0.1212 -0.6966
vn 0.4928 0.8573 0.1492
vn -0.0000 0.9417 -0.3363
vn -0.0000 0.7728 0.6346
vn 0.1154 -0.1714 0.9784
vn 0.5030 0.8595 0.0912
vn -0.7839 0.1180 -0.6096
vn -0.4758 0.8551 0.2059
vn 0.0704 0.7728 0.6307
vn -0.0433 0.9417 -0.3336
vn 0.6207 0.1243 -0.7741
vn -0.9932 -0.0044 0.1164
vn -0.3213 0.9093 0.2644
vn -0.9872 -0.0119 0.1592
vn -0.3395 0.9351 0.1022
vn 0.3698 0.9053 0.2090
vn -0.4410 0.8828 0.1615
vn -1.0000 -0.0015 0.0086
vn 1.0000 0.0001 -0.0007
vn -0.0000 0.9852 0.1714
vn -0.9989 0.0081 -0.0467
vn 0.3703 0.9170 0.1481
vn -0.4406 0.8907 0.1120
vn -0.9922 -0.0059 0.1247
vn -0.9987 0.0069 0.0512
vn 0.0156 0.9852 0.1707
vn -0.3645 0.8788 0.3080
vn -0.3896 0.9160 0.0953
vn -0.9941 -0.0030 0.1080
vn 0.0000 0.1714 -0.9852
vn -0.7071 -0.1212 0.6966
vn -0.6207 -0.1243 0.7741
vn 0.7839 -0.1180 0.6096
vn -0.4420 -0.6932 -0.5693
vn 0.4420 -0.6932 -0.5693
vn -0.4420 -0.8447 0.3017
vn 0.4420 -0.8447 0.3017
vn 0.4778 -0.8428 0.2478
vn -0.4002 -0.8467 0.3507
vn 0.3758 -0.6913 -0.6172
vn -0.5022 -0.6952 -0.5143
vn -0.4928 -0.8573 -0.1492
vn 0.4928 -0.8573 -0.1492
vn 0.0000 -0.7728 -0.6346
vn 0.0000 -0.9417 0.3363
vn 0.4758 -0.8551 -0.2059
vn -0.5030 -0.8595 -0.0912
vn 0.0433 -0.9417 0.3336
vn -0.0704 -0.7728 -0.6307
vn -0.3505 -0.9349 -0.0551
vn -0.3686 -0.9040 -0.2164
vn 0.3698 -0.9227 -0.1091
vn -0.4410 -0.8855 -0.1461
vn 0.0000 -0.9852 -0.1714
vn 0.3703 -0.9132 -0.1703
vn -0.4406 -0.8762 -0.1954
vn -0.0156 -0.9852 -0.1707
vn -0.3930 -0.9195 -0.0036
vn -0.4181 -0.8823 -0.2163
vn 0.7071 -0.1212 0.6966
vn -0.0260 -0.9992 0.0319
vn 0.8764 0.4193 0.2369
vn 0.0172 -0.9996 -0.0211
vn -0.5104 0.5066 -0.6949
vn 0.2448 0.4673 0.8495
vn -0.0172 0.9996 0.0211
vn 0.0260 0.9992 -0.0319
vn -0.9038 0.4280 -0.0000
vn -0.7598 0.4881 -0.4295
vn -0.5532 0.4820 0.6795
vn 0.7840 0.5066 0.3589
vn 0.5615 0.4572 -0.6897
vn 0.5747 0.4881 0.6569
usemtl Grey_Floor
s off
f 44//1 100//1 95//1 39//1
f 66//2 10//2 8//2 64//2
f 124//3 123//3 120//3 121//3
f 39//4 95//4 60//4 4//4
f 25//5 81//5 75//5 19//5
f 78//6 22//6 20//6 76//6
f 1//7 2//7 3//7
f 4//8 5//8 6//8
f 7//9 8//9 9//9
f 10//10 11//10 12//10
f 13//11 14//11 15//11
f 16//12 17//12 18//12
f 19//13 20//13 21//13
f 22//14 23//14 24//14
f 2//15 58//15 59//15 3//15
f 41//16 7//16 9//16 43//16
f 60//17 61//17 5//17 4//17
f 39//18 4//18 6//18 40//18
f 1//19 6//19 5//19 2//19
f 12//20 9//20 8//20 10//20
f 17//21 73//21 70//21 14//21
f 25//22 19//22 21//22 26//22
f 22//23 78//23 79//23 23//23
f 50//24 16//24 18//24 54//24
f 13//25 18//25 17//25 14//25
f 24//26 21//26 20//26 22//26
f 23//24 27//24 28//24 24//24
f 31//22 25//22 26//22 29//22
f 75//27 76//27 20//27 19//27
f 23//28 79//28 83//28 27//28
f 31//5 87//5 81//5 25//5
f 35//22 31//22 29//22 33//22
f 27//29 30//29 32//29 28//29
f 35//5 91//5 87//5 31//5
f 53//22 35//22 33//22 45//22
f 27//30 83//30 86//30 30//30
f 30//31 34//31 36//31 32//31
f 53//5 109//5 91//5 35//5
f 44//32 39//32 40//32 42//32
f 3//33 37//33 38//33 1//33
f 3//34 59//34 93//34 37//34
f 11//35 67//35 100//35 44//35
f 38//36 43//36 9//36 12//36 42//36 40//36 6//36 1//36
f 37//37 93//37 97//37 41//37
f 11//38 44//38 42//38 12//38
f 37//39 41//39 43//39 38//39
f 49//40 105//40 106//40 50//40
f 30//41 86//41 90//41 34//41
f 15//5 71//5 107//5 51//5
f 51//5 107//5 108//5 52//5
f 47//36 46//36 45//36 33//36 29//36 26//36 21//36 24//36 28//36 32//36 36//36 56//36 55//36 54//36 18//36 13//36
f 15//22 51//22 47//22 13//22
f 51//22 52//22 46//22 47//22
f 52//22 53//22 45//22 46//22
f 34//24 48//24 56//24 36//24
f 48//42 49//42 55//42 56//42
f 49//43 50//43 54//43 55//43
f 52//5 108//5 109//5 53//5
f 34//28 90//28 104//28 48//28
f 48//44 104//44 105//44 49//44
f 5//45 61//45 58//45 2//45
f 63//46 64//46 8//46 7//46
f 72//47 73//47 17//47 16//47
f 14//48 70//48 71//48 15//48
f 41//49 97//49 63//49 7//49
f 50//28 106//28 72//28 16//28
f 57//50 59//50 58//50
f 60//51 62//51 61//51
f 63//52 65//52 64//52
f 66//53 68//53 67//53
f 69//54 71//54 70//54
f 72//55 74//55 73//55
f 75//56 77//56 76//56
f 78//57 80//57 79//57
f 97//58 99//58 65//58 63//58
f 95//59 96//59 62//59 60//59
f 57//60 58//60 61//60 62//60
f 68//61 66//61 64//61 65//61
f 81//62 82//62 77//62 75//62
f 106//63 110//63 74//63 72//63
f 69//64 70//64 73//64 74//64
f 80//65 78//65 76//65 77//65
f 79//63 80//63 84//63 83//63
f 87//62 85//62 82//62 81//62
f 91//62 89//62 85//62 87//62
f 83//66 84//66 88//66 86//66
f 109//62 101//62 89//62 91//62
f 86//67 88//67 92//67 90//67
f 100//68 98//68 96//68 95//68
f 59//69 57//69 94//69 93//69
f 94//70 57//70 62//70 96//70 98//70 68//70 65//70 99//70
f 67//71 68//71 98//71 100//71
f 93//72 94//72 99//72 97//72
f 103//70 69//70 74//70 110//70 111//70 112//70 92//70 88//70 84//70 80//70 77//70 82//70 85//70 89//70 101//70 102//70
f 71//62 69//62 103//62 107//62
f 107//62 103//62 102//62 108//62
f 108//62 102//62 101//62 109//62
f 90//63 92//63 112//63 104//63
f 104//73 112//73 111//73 105//73
f 105//74 111//74 110//74 106//74
f 10//75 66//75 67//75 11//75
f 123//76 122//76 119//76 120//76
f 116//77 115//77 117//77 118//77
f 118//78 117//78 113//78 114//78
f 120//79 119//79 113//79 117//79
f 121//80 120//80 117//80 115//80
f 124//81 121//81 115//81 116//81
f 122//82 123//82 118//82 114//82
f 119//83 122//83 114//83 113//83
f 123//84 124//84 116//84 118//84
f 168//85 224//85 219//85 163//85
f 190//86 134//86 132//86 188//86
f 163//2 219//2 184//2 128//2
f 149//87 205//87 199//87 143//87
f 202//88 146//88 144//88 200//88
f 125//89 126//89 127//89
f 128//90 129//90 130//90
f 131//91 132//91 133//91
f 134//92 135//92 136//92
f 137//93 138//93 139//93
f 140//94 141//94 142//94
f 143//95 144//95 145//95
f 146//96 147//96 148//96
f 126//97 182//97 183//97 127//97
f 165//98 131//98 133//98 167//98
f 184//99 185//99 129//99 128//99
f 163//100 128//100 130//100 164//100
f 125//101 130//101 129//101 126//101
f 136//102 133//102 132//102 134//102
f 141//103 197//103 194//103 138//103
f 149//104 143//104 145//104 150//104
f 146//105 202//105 203//105 147//105
f 174//106 140//106 142//106 178//106
f 137//107 142//107 141//107 138//107
f 148//108 145//108 144//108 146//108
f 147//106 151//106 152//106 148//106
f 155//104 149//104 150//104 153//104
f 199//109 200//109 144//109 143//109
f 147//110 203//110 207//110 151//110
f 155//87 211//87 205//87 149//87
f 159//104 155//104 153//104 157//104
f 151//111 154//111 156//111 152//111
f 159//87 215//87 211//87 155//87
f 177//104 159//104 157//104 169//104
f 151//112 207//112 210//112 154//112
f 154//113 158//113 160//113 156//113
f 177//87 233//87 215//87 159//87
f 168//114 163//114 164//114 166//114
f 127//115 161//115 162//115 125//115
f 127//116 183//116 217//116 161//116
f 135//117 191//117 224//117 168//117
f 162//118 167//118 133//118 136//118 166//118 164//118 130//118 125//118
f 161//119 217//119 221//119 165//119
f 135//120 168//120 166//120 136//120
f 161//121 165//121 167//121 162//121
f 173//122 229//122 230//122 174//122
f 154//123 210//123 214//123 158//123
f 139//87 195//87 231//87 175//87
f 175//87 231//87 232//87 176//87
f 171//124 170//124 169//124 157//124 153//124 150//124 145//124 148//124 152//124 156//124 160//124 180//124 179//124 178//124 142//124 137//124
f 139//104 175//104 171//104 137//104
f 175//104 176//104 170//104 171//104
f 176//104 177//104 169//104 170//104
f 158//106 172//106 180//106 160//106
f 172//125 173//125 179//125 180//125
f 173//126 174//126 178//126 179//126
f 176//87 232//87 233//87 177//87
f 158//110 214//110 228//110 172//110
f 172//127 228//127 229//127 173//127
f 129//128 185//128 182//128 126//128
f 187//129 188//129 132//129 131//129
f 196//130 197//130 141//130 140//130
f 138//131 194//131 195//131 139//131
f 165//45 221//45 187//45 131//45
f 174//110 230//110 196//110 140//110
f 181//132 183//132 182//132
f 184//133 186//133 185//133
f 187//134 189//134 188//134
f 190//135 192//135 191//135
f 193//136 195//136 194//136
f 196//137 198//137 197//137
f 199//138 201//138 200//138
f 202//139 204//139 203//139
f 221//140 223//140 189//140 187//140
f 219//141 220//141 186//141 184//141
f 181//142 182//142 185//142 186//142
f 192//143 190//143 188//143 189//143
f 205//144 206//144 201//144 199//144
f 230//145 234//145 198//145 196//145
f 193//146 194//146 197//146 198//146
f 204//147 202//147 200//147 201//147
f 203//145 204//145 208//145 207//145
f 211//144 209//144 206//144 205//144
f 215//144 213//144 209//144 211//144
f 207//148 208//148 212//148 210//148
f 233//144 225//144 213//144 215//144
f 210//149 212//149 216//149 214//149
f 224//150 222//150 220//150 219//150
f 183//151 181//151 218//151 217//151
f 218//152 181//152 186//152 220//152 222//152 192//152 189//152 223//152
f 191//153 192//153 222//153 224//153
f 217//154 218//154 223//154 221//154
f 227//155 193//155 198//155 234//155 235//155 236//155 216//155 212//155 208//155 204//155 201//155 206//155 209//155 213//155 225//155 226//155
f 195//144 193//144 227//144 231//144
f 231//144 227//144 226//144 232//144
f 232//144 226//144 225//144 233//144
f 214//145 216//145 236//145 228//145
f 228//156 236//156 235//156 229//156
f 229//157 235//157 234//157 230//157
f 134//158 190//158 191//158 135//158
f 239//70 237//70 238//70 240//70
f 250//159 249//159 247//159 244//159
f 246//160 248//160 240//160 238//160
f 241//161 242//161 249//161 250//161
f 246//36 243//36 245//36 248//36
f 252//162 251//162 247//162 249//162
f 248//163 245//163 239//163 240//163
f 256//164 255//164 252//164 253//164
f 243//83 246//83 238//83 237//83
f 255//165 254//165 251//165 252//165
f 245//166 243//166 237//166 239//166
f 253//167 252//167 249//167 242//167
f 256//168 253//168 242//168 241//168
f 254//169 255//169 250//169 244//169
f 251//170 254//170 244//170 247//170
f 255//171 256//171 241//171 250//171
