# Blender v2.79 (sub 0) OBJ File: 'Torch.blend'
# www.blender.org
mtllib Torch.mtl
o Torch_Cylinder.018
v 0.012359 -0.160661 0.021406
v -0.038064 0.270785 0.000000
v 0.024718 -0.160661 0.000000
v -0.019032 0.270785 -0.032965
v 0.012359 -0.160661 -0.021406
v 0.019032 0.270785 -0.032965
v -0.012359 -0.160661 0.021406
v 0.038064 0.270785 0.000000
v -0.012359 -0.160661 -0.021406
v 0.019032 0.270785 0.032965
v -0.024718 -0.160661 0.000000
v -0.019032 0.270785 0.032965
v -0.031604 -0.270785 0.000000
v -0.038064 -0.230985 0.000000
v -0.015802 -0.270785 -0.027370
v -0.019032 -0.230985 -0.032965
v 0.015802 -0.270785 -0.027370
v 0.019032 -0.230985 -0.032965
v 0.031604 -0.270785 0.000000
v 0.038064 -0.230985 0.000000
v 0.015802 -0.270785 0.027370
v 0.019032 -0.230985 0.032965
v -0.015802 -0.270785 0.027370
v -0.019032 -0.230985 0.032965
v 0.009865 -0.118742 0.017086
v 0.019729 -0.118742 0.000000
v 0.009865 -0.118742 -0.017086
v -0.009865 -0.118742 -0.017086
v -0.019729 -0.118742 0.000000
v -0.009865 -0.118742 0.017086
v -0.039810 0.292543 -0.068954
v -0.079621 0.292543 -0.000000
v 0.039810 0.292543 -0.068954
v 0.079621 0.292543 -0.000000
v 0.039810 0.292543 0.068954
v -0.039810 0.292543 0.068954
v -0.039810 0.319740 -0.068954
v -0.079621 0.319740 -0.000000
v 0.039810 0.319740 -0.068954
v 0.079621 0.319740 -0.000000
v 0.039810 0.319740 0.068954
v -0.039810 0.319740 0.068954
v -0.051990 0.319740 -0.090050
v -0.103981 0.319740 -0.000000
v 0.051990 0.319740 -0.090050
v 0.103981 0.319740 -0.000000
v 0.051990 0.319740 0.090050
v -0.051990 0.319740 0.090050
v -0.069569 0.393172 -0.120496
v -0.139137 0.393172 -0.000000
v 0.069569 0.393172 -0.120496
v 0.139137 0.393172 -0.000000
v 0.069569 0.393172 0.120496
v -0.069569 0.393172 0.120496
v -0.052548 0.393172 -0.091015
v -0.105095 0.393172 -0.000000
v 0.052548 0.393172 -0.091015
v 0.105095 0.393172 -0.000000
v 0.052547 0.393172 0.091015
v -0.052547 0.393172 0.091015
v -0.044692 0.364456 -0.077409
v -0.089384 0.364456 0.000000
v 0.044692 0.364456 -0.077409
v 0.089384 0.364456 0.000000
v 0.044692 0.364456 0.077409
v -0.044692 0.364456 0.077409
v -0.013625 0.384689 0.114820
v 0.020990 0.384689 0.114548
v -0.015007 0.384689 0.097985
v 0.019608 0.384689 0.097712
v -0.013625 0.572671 0.114820
v 0.020990 0.572671 0.114548
v -0.015007 0.572671 0.097985
v 0.019608 0.572671 0.097712
v 0.092625 0.384689 0.069209
v 0.109696 0.384689 0.039096
v 0.077354 0.384689 0.061989
v 0.094425 0.384689 0.031875
v 0.092625 0.572671 0.069209
v 0.109696 0.572671 0.039096
v 0.077354 0.572671 0.061989
v 0.094425 0.572671 0.031875
v 0.106249 0.384689 -0.045611
v 0.088706 0.384689 -0.075452
v 0.092361 0.384689 -0.035996
v 0.074818 0.384689 -0.065837
v 0.106249 0.572671 -0.045611
v 0.088706 0.572671 -0.075452
v 0.092361 0.572671 -0.035996
v 0.074818 0.572671 -0.065837
v 0.013624 0.384689 -0.114820
v -0.020990 0.384689 -0.114548
v 0.015007 0.384689 -0.097985
v -0.019608 0.384689 -0.097712
v 0.013624 0.572671 -0.114820
v -0.020990 0.572671 -0.114548
v 0.015007 0.572671 -0.097985
v -0.019608 0.572671 -0.097712
v -0.092625 0.384689 -0.069209
v -0.109696 0.384689 -0.039096
v -0.077354 0.384689 -0.061989
v -0.094425 0.384689 -0.031875
v -0.092625 0.572671 -0.069209
v -0.109696 0.572671 -0.039096
v -0.077354 0.572671 -0.061989
v -0.094425 0.572671 -0.031875
v -0.106249 0.384689 0.045611
v -0.088706 0.384689 0.075452
v -0.092361 0.384689 0.035996
v -0.074818 0.384689 0.065837
v -0.106249 0.572671 0.045611
v -0.088706 0.572671 0.075452
v -0.092361 0.572671 0.035996
v -0.074818 0.572671 0.065837
v -0.018835 0.438250 0.122975
v -0.017099 0.438250 0.144104
v 0.024608 0.438250 0.122633
v 0.026344 0.438250 0.143762
v -0.115917 0.438250 0.045176
v -0.133347 0.438250 0.057244
v -0.093899 0.438250 0.082628
v -0.111330 0.438250 0.094696
v -0.097082 0.438250 -0.077799
v -0.116248 0.438250 -0.086860
v -0.118508 0.438250 -0.040005
v -0.137674 0.438250 -0.049067
v 0.018835 0.438250 -0.122975
v 0.017099 0.438250 -0.144104
v -0.024609 0.438250 -0.122633
v -0.026344 0.438250 -0.143762
v 0.097082 0.438250 0.077799
v 0.116248 0.438250 0.086861
v 0.118508 0.438250 0.040005
v 0.137674 0.438250 0.049067
v 0.115917 0.438250 -0.045176
v 0.133347 0.438250 -0.057244
v 0.093899 0.438250 -0.082628
v 0.111330 0.438250 -0.094696
v -0.033150 0.166374 0.000000
v -0.016575 0.166374 0.028709
v 0.016575 0.166374 0.028709
v 0.033150 0.166374 0.000000
v 0.016575 0.166374 -0.028709
v -0.016575 0.166374 -0.028709
v 0.015894 0.137456 0.027530
v 0.031789 0.137456 0.000000
v 0.015894 0.137456 -0.027530
v -0.015894 0.137456 -0.027530
v -0.031789 0.137456 0.000000
v -0.015894 0.137456 0.027530
v -0.017183 -0.158816 -0.029761
v 0.017183 -0.158816 0.029761
v 0.034365 -0.158816 0.000000
v 0.017183 -0.158816 -0.029761
v -0.034365 -0.158816 0.000000
v -0.017183 -0.158816 0.029761
v -0.038902 0.140314 0.000000
v -0.040567 0.163516 0.000000
v -0.019451 0.140314 0.033690
v -0.020284 0.163516 0.035132
v -0.020284 0.163516 -0.035132
v 0.020284 0.163516 -0.035132
v 0.020284 0.163516 0.035132
v 0.040567 0.163516 0.000000
v 0.019451 0.140314 0.033690
v 0.038902 0.140314 0.000000
v 0.019451 0.140314 -0.033690
v -0.019451 0.140314 -0.033690
v 0.013715 -0.120587 0.023755
v 0.027430 -0.120587 0.000000
v 0.013715 -0.120587 -0.023755
v -0.013715 -0.120587 -0.023755
v -0.027430 -0.120587 0.000000
v -0.013715 -0.120588 0.023755
v -0.017183 -0.158816 -0.288172
v 0.017183 -0.158816 -0.288172
v -0.013715 -0.120587 -0.282166
v 0.013715 -0.120587 -0.282166
v -0.020284 0.163516 -0.293543
v 0.020284 0.163516 -0.293543
v 0.019451 0.140314 -0.292101
v -0.019451 0.140314 -0.292101
v -0.032834 0.364456 -0.056870
v -0.065667 0.364456 0.000000
v 0.032834 0.364456 -0.056870
v 0.065667 0.364456 0.000000
v 0.032834 0.364456 0.056870
v -0.032834 0.364456 0.056870
v -0.048510 0.494014 -0.080121
v -0.091702 0.510571 -0.000000
v 0.037876 0.460900 -0.080121
v 0.081069 0.444342 -0.000000
v 0.037876 0.460900 0.080121
v -0.048510 0.494014 0.080121
v 0.016758 0.615989 -0.011683
v -0.012387 0.623734 0.029582
v 0.065928 0.603163 -0.006199
v 0.085952 0.598083 0.040549
v 0.056807 0.605827 0.081814
v 0.007638 0.618653 0.076330
v -0.013460 0.677983 0.010609
v -0.041588 0.682865 0.053002
v 0.036845 0.669666 0.014135
v 0.059022 0.666230 0.060055
v 0.030894 0.671113 0.102448
v -0.019411 0.679430 0.098921
v 0.034377 0.879863 0.034840
vn -0.8653 -0.0407 0.4996
vn 0.8653 -0.0407 -0.4996
vn 0.8653 -0.0407 0.4996
vn 0.0000 -0.0407 0.9992
vn -0.4481 -0.8558 0.2587
vn -0.8546 0.1622 -0.4934
vn 0.0000 -0.0407 -0.9992
vn -0.8653 -0.0407 -0.4996
vn -0.8576 -0.1392 -0.4951
vn 0.0000 -0.1392 -0.9903
vn 0.8576 -0.1392 -0.4951
vn 0.8576 -0.1392 0.4951
vn 0.0000 -0.1392 0.9903
vn -0.8576 -0.1392 0.4951
vn 0.0000 -1.0000 0.0000
vn 0.0000 0.1622 -0.9868
vn 0.0000 0.1622 0.9868
vn 0.8546 0.1622 0.4934
vn 0.8546 0.1622 -0.4934
vn -0.8546 0.1622 0.4934
vn 0.0000 -0.9765 0.2156
vn -0.1868 -0.9765 -0.1078
vn -0.0000 0.9638 0.2667
vn 0.1868 -0.9765 0.1078
vn 0.1868 -0.9765 -0.1078
vn -0.2309 0.9638 0.1333
vn -0.8660 -0.0000 0.5000
vn 0.4481 -0.8558 0.2587
vn 0.0000 -0.8558 -0.5174
vn 0.0000 -0.8558 0.5174
vn -0.4481 -0.8558 -0.2587
vn 0.4481 -0.8558 -0.2587
vn 0.8660 -0.0000 0.5000
vn 0.0000 0.0000 -1.0000
vn 0.0000 0.0000 1.0000
vn 0.8660 0.0000 -0.5000
vn -0.8660 0.0000 -0.5000
vn -0.8000 -0.3830 0.4619
vn 0.0000 1.0000 0.0000
vn 0.8000 -0.3830 0.4619
vn 0.0000 -0.3830 -0.9237
vn 0.0000 -0.3830 0.9237
vn 0.8000 -0.3830 -0.4619
vn -0.8000 -0.3830 -0.4619
vn 0.7826 0.4282 -0.4518
vn -0.7826 0.4282 -0.4518
vn 0.0000 0.4282 0.9037
vn 0.0000 0.4282 -0.9037
vn -0.7826 0.4282 0.4518
vn 0.7826 0.4282 0.4518
vn -0.9957 0.0436 0.0818
vn -0.0077 -0.1826 -0.9832
vn 0.9964 0.0219 -0.0818
vn 0.0077 0.2127 0.9771
vn -0.4270 0.0436 0.9032
vn -0.8553 -0.1826 -0.4849
vn 0.4273 0.0219 -0.9038
vn 0.8500 0.2127 0.4819
vn 0.5687 0.0436 0.8214
vn -0.8476 -0.1826 0.4983
vn -0.5691 0.0219 -0.8220
vn 0.8423 0.2127 -0.4952
vn 0.9957 0.0436 -0.0818
vn 0.0077 -0.1826 0.9832
vn -0.9964 0.0219 0.0818
vn -0.0077 0.2127 -0.9771
vn 0.4270 0.0436 -0.9032
vn 0.8553 -0.1826 0.4849
vn -0.4273 0.0219 0.9038
vn -0.8500 0.2127 -0.4819
vn -0.5687 0.0436 -0.8214
vn 0.8476 -0.1826 -0.4983
vn 0.5691 0.0219 0.8220
vn -0.8423 0.2127 0.4952
vn 0.0069 -0.4794 0.8776
vn 0.9951 -0.0549 -0.0817
vn -0.0071 0.4224 -0.9064
vn -0.9907 -0.1088 0.0814
vn -0.7566 -0.4794 0.4448
vn 0.5684 -0.0549 0.8210
vn 0.7814 0.4224 -0.4594
vn -0.5658 -0.1088 -0.8173
vn -0.7635 -0.4794 -0.4328
vn -0.4268 -0.0549 0.9027
vn 0.7885 0.4224 0.4470
vn 0.4249 -0.1088 -0.8987
vn -0.0069 -0.4794 -0.8776
vn -0.9951 -0.0549 0.0817
vn 0.0071 0.4224 0.9064
vn 0.9907 -0.1088 -0.0814
vn 0.7635 -0.4794 0.4328
vn 0.4268 -0.0549 -0.9027
vn -0.7885 0.4224 -0.4470
vn -0.4249 -0.1088 0.8987
vn 0.7566 -0.4794 -0.4448
vn -0.5684 -0.0549 -0.8210
vn -0.7814 0.4224 0.4594
vn 0.5658 -0.1088 0.8173
vn 0.3520 0.9137 0.2032
vn 0.3645 -0.9071 -0.2104
vn 0.0000 -0.9071 -0.4208
vn 0.0000 0.9137 0.4065
vn -0.3645 -0.9071 0.2104
vn -0.3520 0.9137 0.2032
vn -0.8555 0.1552 -0.4939
vn 0.2309 0.9638 0.1333
vn -0.8555 0.1552 0.4939
vn 0.8555 0.1552 -0.4939
vn 0.8555 0.1552 0.4939
vn 0.0000 0.1552 0.9879
vn -0.8644 -0.0621 -0.4990
vn 0.0000 -0.0621 0.9981
vn 0.8644 -0.0621 0.4990
vn 0.8644 -0.0621 -0.4990
vn -0.8644 -0.0621 0.4990
vn -0.3645 -0.9071 -0.2104
vn -0.3520 0.9137 -0.2032
vn 0.3645 -0.9071 0.2104
vn 0.3520 0.9137 -0.2032
vn -0.0000 0.9137 -0.4065
vn 0.0000 -0.9071 0.4208
vn -0.1868 -0.9765 0.1078
vn -0.2309 0.9638 -0.1333
vn 0.0000 -0.9765 -0.2156
vn 0.2309 0.9638 -0.1333
vn 0.0000 0.9638 -0.2667
vn 0.0000 0.1552 -0.9879
vn 0.0000 -0.0621 -0.9981
vn 0.9994 -0.0359 -0.0000
vn -0.9959 0.0903 0.0000
vn -0.9994 -0.0359 0.0000
vn 0.9959 0.0903 -0.0000
vn -0.0443 -0.2033 0.9781
vn -0.7910 0.4005 0.4625
vn 0.8540 -0.1641 -0.4938
vn -0.8702 -0.1706 -0.4623
vn -0.8702 -0.1706 0.4623
vn 0.8540 -0.1641 0.4938
vn -0.0443 -0.2033 -0.9781
vn -0.1634 -0.3807 0.9102
vn 0.8377 -0.1414 0.5275
vn 0.1775 0.4174 -0.8912
vn -0.0345 0.0174 0.9993
vn 0.8976 0.0686 -0.4355
vn -0.6321 0.5954 -0.4959
vn 0.8310 0.1588 0.5331
vn 0.8298 0.4449 -0.3370
vn -0.8220 -0.2024 -0.5322
vn -0.8044 -0.5003 0.3204
vn 0.8253 0.1643 0.5402
vn 0.1628 0.3775 -0.9116
vn 0.0858 0.0987 -0.9914
vn -0.0157 0.3083 0.9512
vn 0.9008 0.0530 -0.4311
vn -0.7921 0.2543 -0.5549
vn -0.8295 0.3593 0.4275
usemtl DarkMetal
s off
f 140//1 12//1 2//1 139//1
f 143//2 6//2 8//2 142//2
f 142//3 8//3 10//3 141//3
f 141//4 10//4 12//4 140//4
f 2//5 12//5 36//5 32//5
f 14//6 11//6 9//6 16//6
f 144//7 4//7 6//7 143//7
f 139//8 2//8 4//8 144//8
f 14//9 16//9 15//9 13//9
f 16//10 18//10 17//10 15//10
f 18//11 20//11 19//11 17//11
f 20//12 22//12 21//12 19//12
f 22//13 24//13 23//13 21//13
f 24//14 14//14 13//14 23//14
f 13//15 15//15 17//15 19//15 21//15 23//15
f 16//16 9//16 5//16 18//16
f 22//17 1//17 7//17 24//17
f 20//18 3//18 1//18 22//18
f 18//19 5//19 3//19 20//19
f 24//20 7//20 11//20 14//20
f 7//21 1//21 152//21 156//21
f 9//22 11//22 155//22 151//22
f 25//23 30//23 174//23 169//23
f 1//24 3//24 153//24 152//24
f 3//25 5//25 154//25 153//25
f 30//26 29//26 173//26 174//26
f 32//27 36//27 42//27 38//27
f 10//28 8//28 34//28 35//28
f 6//29 4//29 31//29 33//29
f 12//30 10//30 35//30 36//30
f 4//31 2//31 32//31 31//31
f 8//32 6//32 33//32 34//32
f 42//15 41//15 47//15 48//15
f 35//33 34//33 40//33 41//33
f 33//34 31//34 37//34 39//34
f 36//35 35//35 41//35 42//35
f 34//36 33//36 39//36 40//36
f 31//37 32//37 38//37 37//37
f 44//38 48//38 54//38 50//38
f 40//15 39//15 45//15 46//15
f 37//15 38//15 44//15 43//15
f 38//15 42//15 48//15 44//15
f 41//15 40//15 46//15 47//15
f 39//15 37//15 43//15 45//15
f 54//39 53//39 59//39 60//39
f 47//40 46//40 52//40 53//40
f 45//41 43//41 49//41 51//41
f 48//42 47//42 53//42 54//42
f 46//43 45//43 51//43 52//43
f 43//44 44//44 50//44 49//44
f 56//45 60//45 66//45 62//45
f 52//39 51//39 57//39 58//39
f 49//39 50//39 56//39 55//39
f 50//39 54//39 60//39 56//39
f 53//39 52//39 58//39 59//39
f 51//39 49//39 55//39 57//39
f 66//39 65//39 187//39 188//39
f 59//46 58//46 64//46 65//46
f 57//47 55//47 61//47 63//47
f 60//48 59//48 65//48 66//48
f 58//49 57//49 63//49 64//49
f 55//50 56//50 62//50 61//50
f 68//15 67//15 69//15 70//15
f 72//39 74//39 73//39 71//39
f 116//51 71//51 73//51 115//51
f 115//52 73//52 74//52 117//52
f 117//53 74//53 72//53 118//53
f 118//54 72//54 71//54 116//54
f 76//15 75//15 77//15 78//15
f 80//39 82//39 81//39 79//39
f 132//55 79//55 81//55 131//55
f 131//56 81//56 82//56 133//56
f 133//57 82//57 80//57 134//57
f 134//58 80//58 79//58 132//58
f 84//15 83//15 85//15 86//15
f 88//39 90//39 89//39 87//39
f 136//59 87//59 89//59 135//59
f 135//60 89//60 90//60 137//60
f 137//61 90//61 88//61 138//61
f 138//62 88//62 87//62 136//62
f 92//15 91//15 93//15 94//15
f 96//39 98//39 97//39 95//39
f 128//63 95//63 97//63 127//63
f 127//64 97//64 98//64 129//64
f 129//65 98//65 96//65 130//65
f 130//66 96//66 95//66 128//66
f 100//15 99//15 101//15 102//15
f 104//39 106//39 105//39 103//39
f 124//67 103//67 105//67 123//67
f 123//68 105//68 106//68 125//68
f 125//69 106//69 104//69 126//69
f 126//70 104//70 103//70 124//70
f 108//15 107//15 109//15 110//15
f 112//39 114//39 113//39 111//39
f 120//71 111//71 113//71 119//71
f 119//72 113//72 114//72 121//72
f 121//73 114//73 112//73 122//73
f 122//74 112//74 111//74 120//74
f 68//75 118//75 116//75 67//75
f 70//76 117//76 118//76 68//76
f 69//77 115//77 117//77 70//77
f 67//78 116//78 115//78 69//78
f 108//79 122//79 120//79 107//79
f 110//80 121//80 122//80 108//80
f 109//81 119//81 121//81 110//81
f 107//82 120//82 119//82 109//82
f 100//83 126//83 124//83 99//83
f 102//84 125//84 126//84 100//84
f 101//85 123//85 125//85 102//85
f 99//86 124//86 123//86 101//86
f 92//87 130//87 128//87 91//87
f 94//88 129//88 130//88 92//88
f 93//89 127//89 129//89 94//89
f 91//90 128//90 127//90 93//90
f 76//91 134//91 132//91 75//91
f 78//92 133//92 134//92 76//92
f 77//93 131//93 133//93 78//93
f 75//94 132//94 131//94 77//94
f 84//95 138//95 136//95 83//95
f 86//96 137//96 138//96 84//96
f 85//97 135//97 137//97 86//97
f 83//98 136//98 135//98 85//98
f 142//99 141//99 163//99 164//99
f 146//100 147//100 167//100 166//100
f 147//101 148//101 168//101 167//101
f 141//102 140//102 160//102 163//102
f 149//103 150//103 159//103 157//103
f 140//104 139//104 158//104 160//104
f 155//105 173//105 172//105 151//105
f 30//1 150//1 149//1 29//1
f 27//2 147//2 146//2 26//2
f 26//3 146//3 145//3 25//3
f 25//4 145//4 150//4 30//4
f 28//7 148//7 147//7 27//7
f 26//106 25//106 169//106 170//106
f 156//107 174//107 173//107 155//107
f 154//108 171//108 170//108 153//108
f 153//109 170//109 169//109 152//109
f 152//110 169//110 174//110 156//110
f 161//39 162//39 180//39 179//39
f 157//111 158//111 161//111 168//111
f 172//39 171//39 178//39 177//39
f 165//112 163//112 160//112 159//112
f 166//113 164//113 163//113 165//113
f 167//114 162//114 164//114 166//114
f 159//115 160//115 158//115 157//115
f 148//116 149//116 157//116 168//116
f 139//117 144//117 161//117 158//117
f 145//118 146//118 166//118 165//118
f 143//119 142//119 164//119 162//119
f 144//120 143//120 162//120 161//120
f 150//121 145//121 165//121 159//121
f 29//8 149//8 148//8 28//8
f 11//122 7//122 156//122 155//122
f 29//123 28//123 172//123 173//123
f 5//124 9//124 151//124 154//124
f 27//125 26//125 170//125 171//125
f 28//126 27//126 171//126 172//126
f 175//127 177//127 178//127 176//127
f 182//128 179//128 180//128 181//128
f 162//129 167//129 181//129 180//129
f 151//130 172//130 177//130 175//130
f 154//15 151//15 175//15 176//15
f 168//131 161//131 179//131 182//131
f 171//132 154//132 176//132 178//132
f 167//15 168//15 182//15 181//15
f 64//39 63//39 185//39 186//39
f 61//39 62//39 184//39 183//39
f 62//39 66//39 188//39 184//39
f 65//39 64//39 186//39 187//39
f 63//39 61//39 183//39 185//39
usemtl Fire
f 188//133 187//133 193//133 194//133
f 190//134 194//134 200//134 196//134
f 186//135 185//135 191//135 192//135
f 183//136 184//136 190//136 189//136
f 184//137 188//137 194//137 190//137
f 187//138 186//138 192//138 193//138
f 185//139 183//139 189//139 191//139
f 200//140 199//140 205//140 206//140
f 193//141 192//141 198//141 199//141
f 191//142 189//142 195//142 197//142
f 194//143 193//143 199//143 200//143
f 192//144 191//144 197//144 198//144
f 189//145 190//145 196//145 195//145
f 205//146 204//146 207//146
f 198//147 197//147 203//147 204//147
f 195//148 196//148 202//148 201//148
f 196//149 200//149 206//149 202//149
f 199//150 198//150 204//150 205//150
f 197//151 195//151 201//151 203//151
f 203//152 201//152 207//152
f 206//153 205//153 207//153
f 204//154 203//154 207//154
f 201//155 202//155 207//155
f 202//156 206//156 207//156
