# Blender v2.79 (sub 0) OBJ File: 'WallCover_Modular.blend'
# www.blender.org
mtllib WallCover_Modular.mtl
o WallCover_Modular_Cube.017
v -0.335522 -0.578127 0.230160
v -0.335522 -0.587475 0.254594
v -0.321471 -0.587475 0.230160
v -0.335522 -0.995096 0.254594
v -0.335522 -1.009147 0.230160
v -0.321471 -0.995096 0.230160
v -0.988367 -0.578127 0.230160
v -1.002418 -0.587475 0.230160
v -0.988367 -0.587475 0.254594
v -0.988367 -1.009147 0.230160
v -0.988367 -0.995096 0.254594
v -1.002418 -0.995096 0.230160
v -0.345880 -0.623440 0.254594
v -0.322578 -0.623440 0.230160
v -0.982280 -0.623440 0.254594
v -1.004349 -0.623440 0.230160
v -0.338572 -0.813588 0.254594
v -0.322237 -0.813588 0.230160
v -0.310912 -1.009776 0.230160
v -0.310912 -0.995725 0.254594
v -0.324962 -0.995725 0.230160
v -0.310912 -0.587893 0.254594
v -0.310912 -0.578546 0.230160
v -0.324962 -0.587893 0.230160
v 0.344233 -1.009776 0.230160
v 0.358284 -0.995725 0.230160
v 0.344233 -0.995725 0.254594
v 0.344233 -0.578546 0.230160
v 0.344233 -0.587893 0.254594
v 0.358284 -0.587893 0.230160
v -0.300553 -0.869515 0.254594
v -0.323855 -0.869515 0.230160
v 0.338147 -0.869515 0.254594
v 0.360215 -0.869515 0.230160
v -0.307861 -0.828688 0.254594
v -0.324197 -0.828688 0.230160
v -1.003383 -0.831321 0.230160
v -0.997243 -0.831321 0.254594
v 0.371478 -1.009776 0.230160
v 0.371478 -0.995725 0.254594
v 0.357427 -0.995725 0.230160
v 0.371478 -0.587893 0.254594
v 0.371478 -0.578546 0.230160
v 0.357427 -0.587893 0.230160
v 0.989830 -1.009776 0.230160
v 1.003880 -0.995725 0.230160
v 0.989830 -0.995725 0.254594
v 0.989830 -0.578546 0.230160
v 0.989830 -0.587893 0.254594
v 1.003881 -0.587893 0.230160
v 0.381836 -0.869515 0.254594
v 0.358534 -0.869515 0.230160
v 0.983743 -0.869515 0.254594
v 1.005811 -0.869515 0.230160
v 0.374528 -0.828688 0.254594
v 0.358193 -0.828688 0.230160
v -0.335522 -0.578127 -0.230160
v -0.335522 -0.587475 -0.254594
v -0.321471 -0.587475 -0.230160
v -0.335522 -0.995096 -0.254594
v -0.335522 -1.009147 -0.230160
v -0.321471 -0.995096 -0.230160
v -0.988367 -0.578127 -0.230160
v -1.002418 -0.587475 -0.230160
v -0.988367 -0.587475 -0.254594
v -0.988367 -1.009147 -0.230160
v -0.988367 -0.995096 -0.254594
v -1.002418 -0.995096 -0.230160
v -0.345880 -0.623440 -0.254594
v -0.322578 -0.623440 -0.230160
v -0.982280 -0.623440 -0.254594
v -1.004349 -0.623440 -0.230160
v -0.335522 -0.578127 0.000000
v -0.321471 -0.587475 0.000000
v -0.335522 -1.009147 0.000000
v -0.321471 -0.995096 0.000000
v -0.988367 -0.578127 0.000000
v -1.002418 -0.587475 0.000000
v -0.988367 -1.009147 0.000000
v -1.002418 -0.995096 0.000000
v -0.322578 -0.623440 0.000000
v -1.004349 -0.623440 0.000000
v -0.338572 -0.813588 -0.254594
v -0.322237 -0.813588 -0.230160
v -0.322237 -0.813588 0.000000
v -0.310912 -1.009776 -0.230160
v -0.310912 -0.995725 -0.254594
v -0.324962 -0.995725 -0.230160
v -0.310912 -0.587893 -0.254594
v -0.310912 -0.578546 -0.230160
v -0.324962 -0.587893 -0.230160
v 0.344233 -1.009776 -0.230160
v 0.358284 -0.995725 -0.230160
v 0.344233 -0.995725 -0.254594
v 0.344233 -0.578546 -0.230160
v 0.344233 -0.587893 -0.254594
v 0.358284 -0.587893 -0.230160
v -0.300553 -0.869515 -0.254594
v -0.323855 -0.869515 -0.230160
v 0.338147 -0.869515 -0.254594
v 0.360215 -0.869515 -0.230160
v -0.310912 -1.009776 0.000000
v -0.324962 -0.995725 0.000000
v -0.310912 -0.578546 0.000000
v -0.324962 -0.587893 0.000000
v 0.344233 -1.009776 0.000000
v 0.358284 -0.995725 0.000000
v 0.344233 -0.578546 0.000000
v 0.358284 -0.587893 0.000000
v -0.323855 -0.869515 0.000000
v 0.360215 -0.869515 0.000000
v -0.307861 -0.828688 -0.254594
v -0.324197 -0.828688 -0.230160
v -0.324197 -0.828688 0.000000
v -1.003383 -0.831321 -0.230160
v -0.997243 -0.831321 -0.254594
v -1.003383 -0.831321 0.000000
v 0.371478 -1.009776 -0.230160
v 0.371478 -0.995725 -0.254594
v 0.357427 -0.995725 -0.230160
v 0.371478 -0.587893 -0.254594
v 0.371478 -0.578546 -0.230160
v 0.357427 -0.587893 -0.230160
v 0.989830 -1.009776 -0.230160
v 1.003880 -0.995725 -0.230160
v 0.989830 -0.995725 -0.254594
v 0.989830 -0.578546 -0.230160
v 0.989830 -0.587893 -0.254594
v 1.003881 -0.587893 -0.230160
v 0.381836 -0.869515 -0.254594
v 0.358534 -0.869515 -0.230160
v 0.983743 -0.869515 -0.254594
v 1.005811 -0.869515 -0.230160
v 0.371478 -1.009776 0.000000
v 0.357427 -0.995725 0.000000
v 0.371478 -0.578546 0.000000
v 0.357427 -0.587893 0.000000
v 0.989830 -1.009776 0.000000
v 1.003880 -0.995725 0.000000
v 0.989830 -0.578546 0.000000
v 1.003881 -0.587893 0.000000
v 0.358534 -0.869515 0.000000
v 1.005811 -0.869515 0.000000
v 0.374528 -0.828688 -0.254594
v 0.358193 -0.828688 -0.230160
v 0.358193 -0.828688 0.000000
vn 0.0000 1.0000 0.0000
vn -1.0000 -0.0059 -0.0000
vn 0.0000 -1.0000 0.0000
vn -0.0000 -0.0000 1.0000
vn 0.5278 0.7933 0.3035
vn 0.6550 -0.6550 0.3767
vn -0.5278 0.7933 0.3035
vn -0.6550 -0.6550 0.3767
vn 0.5539 0.8326 0.0000
vn 0.8492 0.0089 0.5280
vn -0.7071 -0.7071 0.0000
vn -0.8033 -0.0464 0.5937
vn 0.0000 0.9340 0.3573
vn 0.0000 -0.8669 0.4985
vn -0.8657 0.0291 0.4997
vn 0.7882 -0.1256 0.6025
vn -0.9986 0.0536 0.0000
vn 1.0000 0.0042 0.0000
vn 0.7071 -0.7071 0.0000
vn -0.5539 0.8326 0.0000
vn 0.9995 -0.0308 0.0000
vn 1.0000 0.0018 0.0000
vn 0.7766 0.0156 0.6299
vn 1.0000 0.0069 0.0000
vn -0.8492 -0.0067 0.5280
vn 0.8041 0.0132 0.5943
vn 0.8042 -0.0059 0.5944
vn -0.7940 0.0361 0.6069
vn 0.9999 -0.0153 0.0000
vn -1.0000 -0.0032 0.0000
vn -1.0000 0.0088 0.0000
vn -1.0000 -0.0084 0.0000
vn -0.7746 -0.0726 0.6283
vn -0.9239 -0.0278 0.3817
vn -1.0000 -0.0046 0.0000
vn 0.0000 -0.0000 -1.0000
vn 0.5278 0.7933 -0.3035
vn 0.6550 -0.6550 -0.3767
vn -0.5278 0.7933 -0.3035
vn -0.6550 -0.6550 -0.3767
vn 0.8492 0.0089 -0.5280
vn -0.8033 -0.0464 -0.5937
vn 0.0000 0.9340 -0.3573
vn 0.0000 -0.8669 -0.4985
vn -0.8657 0.0291 -0.4997
vn 0.7882 -0.1256 -0.6025
vn 0.7766 0.0156 -0.6299
vn -0.8492 -0.0067 -0.5280
vn 0.8041 0.0132 -0.5943
vn 0.8042 -0.0059 -0.5944
vn -0.7940 0.0361 -0.6069
vn -0.7746 -0.0726 -0.6283
vn -0.9239 -0.0278 -0.3817
usemtl Grey_Floor
s off
f 73//1 77//1 7//1 1//1
f 117//2 80//2 12//2 37//2
f 79//3 75//3 5//3 10//3
f 9//4 15//4 38//4 11//4 4//4 17//4 13//4 2//4
f 1//5 2//5 3//5
f 4//6 5//6 6//6
f 7//7 8//7 9//7
f 10//8 11//8 12//8
f 73//9 1//9 3//9 74//9
f 17//10 4//10 6//10 18//10
f 79//11 10//11 12//11 80//11
f 15//12 9//12 8//12 16//12
f 1//13 7//13 9//13 2//13
f 10//14 5//14 4//14 11//14
f 38//15 15//15 16//15 37//15
f 2//16 13//16 14//16 3//16
f 78//17 82//17 16//17 8//17
f 18//18 6//18 76//18 85//18
f 5//19 75//19 76//19 6//19
f 7//20 77//20 78//20 8//20
f 3//21 14//21 81//21 74//21
f 14//22 18//22 85//22 81//22
f 13//23 17//23 18//23 14//23
f 102//3 106//3 25//3 19//3
f 111//24 109//24 30//24 34//24
f 108//1 104//1 23//1 28//1
f 27//4 33//4 29//4 22//4 35//4 31//4 20//4
f 19//8 20//8 21//8
f 22//7 23//7 24//7
f 25//6 26//6 27//6
f 28//5 29//5 30//5
f 102//11 19//11 21//11 103//11
f 35//25 22//25 24//25 36//25
f 108//9 28//9 30//9 109//9
f 33//26 27//26 26//26 34//26
f 19//14 25//14 27//14 20//14
f 28//13 23//13 22//13 29//13
f 29//27 33//27 34//27 30//27
f 20//28 31//28 32//28 21//28
f 107//29 111//29 34//29 26//29
f 36//30 24//30 105//30 114//30
f 23//20 104//20 105//20 24//20
f 25//19 106//19 107//19 26//19
f 21//31 32//31 110//31 103//31
f 32//32 36//32 114//32 110//32
f 31//33 35//33 36//33 32//33
f 11//34 38//34 37//34 12//34
f 82//35 117//35 37//35 16//35
f 134//3 138//3 45//3 39//3
f 143//24 141//24 50//24 54//24
f 140//1 136//1 43//1 48//1
f 47//4 53//4 49//4 42//4 55//4 51//4 40//4
f 39//8 40//8 41//8
f 42//7 43//7 44//7
f 45//6 46//6 47//6
f 48//5 49//5 50//5
f 134//11 39//11 41//11 135//11
f 55//25 42//25 44//25 56//25
f 140//9 48//9 50//9 141//9
f 53//26 47//26 46//26 54//26
f 39//14 45//14 47//14 40//14
f 48//13 43//13 42//13 49//13
f 49//27 53//27 54//27 50//27
f 40//28 51//28 52//28 41//28
f 139//29 143//29 54//29 46//29
f 56//30 44//30 137//30 146//30
f 43//20 136//20 137//20 44//20
f 45//19 138//19 139//19 46//19
f 41//31 52//31 142//31 135//31
f 52//32 56//32 146//32 142//32
f 51//33 55//33 56//33 52//33
f 73//1 57//1 63//1 77//1
f 117//2 115//2 68//2 80//2
f 79//3 66//3 61//3 75//3
f 65//36 58//36 69//36 83//36 60//36 67//36 116//36 71//36
f 57//37 59//37 58//37
f 60//38 62//38 61//38
f 63//39 65//39 64//39
f 66//40 68//40 67//40
f 73//9 74//9 59//9 57//9
f 83//41 84//41 62//41 60//41
f 79//11 80//11 68//11 66//11
f 71//42 72//42 64//42 65//42
f 57//43 58//43 65//43 63//43
f 66//44 67//44 60//44 61//44
f 116//45 115//45 72//45 71//45
f 58//46 59//46 70//46 69//46
f 78//17 64//17 72//17 82//17
f 84//18 85//18 76//18 62//18
f 61//19 62//19 76//19 75//19
f 63//20 64//20 78//20 77//20
f 59//21 74//21 81//21 70//21
f 70//22 81//22 85//22 84//22
f 69//47 70//47 84//47 83//47
f 102//3 86//3 92//3 106//3
f 111//24 101//24 97//24 109//24
f 108//1 95//1 90//1 104//1
f 94//36 87//36 98//36 112//36 89//36 96//36 100//36
f 86//40 88//40 87//40
f 89//39 91//39 90//39
f 92//38 94//38 93//38
f 95//37 97//37 96//37
f 102//11 103//11 88//11 86//11
f 112//48 113//48 91//48 89//48
f 108//9 109//9 97//9 95//9
f 100//49 101//49 93//49 94//49
f 86//44 87//44 94//44 92//44
f 95//43 96//43 89//43 90//43
f 96//50 97//50 101//50 100//50
f 87//51 88//51 99//51 98//51
f 107//29 93//29 101//29 111//29
f 113//30 114//30 105//30 91//30
f 90//20 91//20 105//20 104//20
f 92//19 93//19 107//19 106//19
f 88//31 103//31 110//31 99//31
f 99//32 110//32 114//32 113//32
f 98//52 99//52 113//52 112//52
f 67//53 68//53 115//53 116//53
f 82//35 72//35 115//35 117//35
f 134//3 118//3 124//3 138//3
f 143//24 133//24 129//24 141//24
f 140//1 127//1 122//1 136//1
f 126//36 119//36 130//36 144//36 121//36 128//36 132//36
f 118//40 120//40 119//40
f 121//39 123//39 122//39
f 124//38 126//38 125//38
f 127//37 129//37 128//37
f 134//11 135//11 120//11 118//11
f 144//48 145//48 123//48 121//48
f 140//9 141//9 129//9 127//9
f 132//49 133//49 125//49 126//49
f 118//44 119//44 126//44 124//44
f 127//43 128//43 121//43 122//43
f 128//50 129//50 133//50 132//50
f 119//51 120//51 131//51 130//51
f 139//29 125//29 133//29 143//29
f 145//30 146//30 137//30 123//30
f 122//20 123//20 137//20 136//20
f 124//19 125//19 139//19 138//19
f 120//31 135//31 142//31 131//31
f 131//32 142//32 146//32 145//32
f 130//52 131//52 145//52 144//52
